<svg width="560" height="329" viewBox="0 0 560 329" fill="none" xmlns="http://www.w3.org/2000/svg">
<g clip-path="url(#clip0_13_287)">
<path d="M0.19074 28.4935C2.01108 41.511 14.7779 51.8188 17.807 64.6757C18.1866 66.3613 18.4189 68.068 18.5018 69.7822C18.9373 77.1661 17.2002 84.7023 18.0957 92.0985C19.7643 105.968 29.7811 116.807 42.499 126.201C52.1194 133.288 63.2862 139.523 73.5574 145.556C99.7077 160.929 124.233 180.338 134.974 205.616C142.133 222.471 142.681 240.789 147.937 258.135C153.192 275.48 165.162 293.23 185.391 298.76C207.103 304.699 231.027 294.799 253.37 298.711C277.348 302.911 294.352 321.983 318.012 327.369C348.072 334.213 378.029 317.395 408.887 313.89C423.704 312.206 438.786 313.635 453.681 312.556C470.263 311.342 486.318 307.05 500.692 299.987C505.585 297.57 510.533 294.601 512.808 290.211C514.765 286.418 514.467 282.094 513.865 277.988C511.614 262.751 505.918 246.188 514.878 232.796C523.143 220.441 543.172 211.603 540.201 197.655C538.415 189.258 528.609 184.016 519.517 180.256C500.765 172.501 480.79 166.431 464.031 155.959C452.042 148.456 441.717 137.987 437.313 126.213C435.507 121.506 434.763 116.556 435.12 111.619C435.737 103.835 438.937 95.0965 433.359 88.8657C430.941 86.1642 427.237 84.5046 423.513 83.2362C409.469 78.4592 393.869 78.1832 379.267 74.7899C374.261 73.6397 369.449 71.9569 364.949 69.7822C356.043 65.4416 348.874 59.0461 347.142 50.6986C346.129 45.8063 347.03 40.465 344.128 36.1409C339.234 28.8106 329.56 25.7467 318.756 24.7501C305.382 23.5146 290.237 25.4461 280.098 26.3974L279.085 26.488C266.063 27.6287 253.15 25.2031 240.461 21.5462C226.76 17.6298 213.367 12.3009 200.335 8.51218C199.112 8.15527 197.892 7.81346 196.675 7.48676C187.163 4.93571 177.423 3.02842 167.55 1.7831C153.625 0.019208 139.511 -0.439339 125.467 0.415872C118.344 0.847785 111.256 1.62327 104.239 2.73851C102.177 3.06797 100.119 3.42076 98.0635 3.79688C86.1138 5.95068 74.2278 8.58218 62.0383 8.73868C61.1624 8.73868 60.2816 8.73868 59.4057 8.73868C44.8674 8.52865 30.0013 5.41944 16.2068 9.1752C9.93349 10.8925 3.9195 14.2694 1.39451 19.3924C-0.00988997 22.2462 -0.234986 25.4296 0.19074 28.4935Z" fill="#15A89D"/>
<path opacity="0.2" d="M18.5019 69.7823H31.0633C31.2507 67.0491 32.3861 64.4221 34.3291 62.2263C36.272 60.0304 38.9373 58.3622 41.9951 57.4278C39.7125 56.3702 37.9126 54.7037 36.8788 52.6908C35.8451 50.6778 35.6361 48.4327 36.2849 46.3088C36.9337 44.1849 38.4034 42.303 40.4626 40.9592C42.5218 39.6154 45.0535 38.8861 47.6592 38.8861C50.265 38.8861 52.7967 39.6154 54.8559 40.9592C56.915 42.303 58.3847 44.1849 59.0335 46.3088C59.6823 48.4327 59.4734 50.6778 58.4396 52.6908C57.4058 54.7037 55.606 56.3702 53.3233 57.4278C56.3812 58.3622 59.0464 60.0304 60.9894 62.2263C62.9323 64.4221 64.0678 67.0491 64.2552 69.7823H64.3628C64.6391 67.1243 65.8121 64.5881 67.7436 62.4723C69.6752 60.3565 72.2848 58.7492 75.2653 57.8396C73.5305 57.0359 72.0654 55.8761 71.0062 54.4681C69.9469 53.06 69.3279 51.4494 69.2068 49.786C69.0856 48.1226 69.4662 46.4604 70.3132 44.954C71.1602 43.4476 72.446 42.1459 74.0512 41.1699C75.6563 40.1939 77.5286 39.5754 79.494 39.3717C81.4595 39.1681 83.4541 39.3861 85.2926 40.0053C87.1311 40.6245 88.7537 41.6249 90.0095 42.9135C91.2653 44.202 92.1135 45.7369 92.4754 47.3754C93.9145 46.387 95.5404 45.6088 97.2856 45.0733C95.0029 44.0157 93.203 42.3492 92.1693 40.3363C91.1355 38.3233 90.9266 36.0782 91.5754 33.9543C92.2242 31.8305 93.6939 29.9485 95.753 28.6047C97.8122 27.2609 100.344 26.5316 102.95 26.5316C105.555 26.5316 108.087 27.2609 110.146 28.6047C112.205 29.9485 113.675 31.8305 114.324 33.9543C114.973 36.0782 114.764 38.3233 113.73 40.3363C112.696 42.3492 110.896 44.0157 108.614 45.0733C111.831 46.054 114.61 47.8455 116.573 50.2037C118.536 52.5619 119.588 55.3721 119.585 58.2514V69.7823H124.967V60.7223C124.964 57.843 126.016 55.0328 127.979 52.6746C129.942 50.3164 132.722 48.5249 135.938 47.5442C133.656 46.4866 131.856 44.8201 130.822 42.8072C129.788 40.7942 129.58 38.5491 130.228 36.4252C130.877 34.3014 132.347 32.4194 134.406 31.0756C136.465 29.7318 138.997 29.0025 141.603 29.0025C144.208 29.0025 146.74 29.7318 148.799 31.0756C150.858 32.4194 152.328 34.3014 152.977 36.4252C153.626 38.5491 153.417 40.7942 152.383 42.8072C151.349 44.8201 149.549 46.4866 147.267 47.5442C149.394 48.1963 151.341 49.2058 152.99 50.5113C154.639 51.8168 155.955 53.391 156.858 55.1381C158.826 52.7834 161.607 50.9949 164.824 50.0151C162.542 48.9575 160.742 47.291 159.708 45.2781C158.674 43.2651 158.465 41.02 159.114 38.8961C159.763 36.7722 161.232 34.8903 163.292 33.5465C165.351 32.2027 167.883 31.4734 170.488 31.4734C173.094 31.4734 175.626 32.2027 177.685 33.5465C179.744 34.8903 181.214 36.7722 181.863 38.8961C182.511 41.02 182.302 43.2651 181.269 45.2781C180.235 47.291 178.435 48.9575 176.152 50.0151C179.699 51.1012 182.704 53.167 184.677 55.8753V54.1333C184.673 51.2539 185.725 48.4437 187.688 46.0855C189.651 43.7273 192.431 41.9359 195.648 40.9552C193.365 39.8975 191.565 38.2311 190.531 36.2181C189.498 34.2051 189.289 31.96 189.938 29.8362C190.586 27.7123 192.056 25.8303 194.115 24.4865C196.174 23.1428 198.706 22.4135 201.312 22.4135C203.918 22.4135 206.449 23.1428 208.508 24.4865C210.568 25.8303 212.037 27.7123 212.686 29.8362C213.335 31.96 213.126 34.2051 212.092 36.2181C211.058 38.2311 209.259 39.8975 206.976 40.9552C210.193 41.9359 212.972 43.7273 214.935 46.0855C216.899 48.4437 217.95 51.2539 217.947 54.1333V69.7823H223.819C224.734 68.077 226.044 66.5427 227.674 65.2697C229.303 63.9967 231.219 63.0107 233.307 62.3696C231.025 61.312 229.225 59.6455 228.191 57.6325C227.157 55.6196 226.948 53.3745 227.597 51.2506C228.246 49.1267 229.716 47.2448 231.775 45.901C233.834 44.5572 236.366 43.8279 238.971 43.8279C241.577 43.8279 244.109 44.5572 246.168 45.901C248.227 47.2448 249.697 49.1267 250.346 51.2506C250.994 53.3745 250.785 55.6196 249.752 57.6325C248.718 59.6455 246.918 61.312 244.635 62.3696C245.796 62.7244 246.905 63.1871 247.943 63.7492C248.357 61.2188 249.585 58.8317 251.494 56.8464C253.404 54.8611 255.923 53.3532 258.777 52.486C256.495 51.4284 254.695 49.7619 253.661 47.749C252.627 45.736 252.418 43.4909 253.067 41.367C253.716 39.2431 255.186 37.3612 257.245 36.0174C259.304 34.6736 261.836 33.9443 264.441 33.9443C267.047 33.9443 269.579 34.6736 271.638 36.0174C273.697 37.3612 275.167 39.2431 275.816 41.367C276.465 43.4909 276.256 45.736 275.222 47.749C274.188 49.7619 272.388 51.4284 270.106 52.486C272.557 53.2395 274.764 54.4667 276.548 56.0689C278.333 57.6711 279.646 59.6035 280.382 61.7107C282.218 59.9669 284.542 58.6363 287.144 57.8396C284.862 56.782 283.062 55.1155 282.028 53.1026C280.994 51.0896 280.785 48.8445 281.434 46.7206C282.083 44.5968 283.553 42.7148 285.612 41.371C287.671 40.0272 290.203 39.2979 292.808 39.2979C295.414 39.2979 297.946 40.0272 300.005 41.371C302.064 42.7148 303.534 44.5968 304.183 46.7206C304.832 48.8445 304.623 51.0896 303.589 53.1026C302.555 55.1155 300.755 56.782 298.473 57.8396C300.268 58.391 301.936 59.199 303.405 60.2282C304.299 58.4456 305.621 56.8377 307.289 55.5054C308.956 54.1731 310.932 53.1451 313.094 52.486C310.811 51.4284 309.011 49.7619 307.978 47.749C306.944 45.736 306.735 43.4909 307.384 41.367C308.033 39.2431 309.502 37.3612 311.561 36.0174C313.621 34.6736 316.152 33.9443 318.758 33.9443C321.364 33.9443 323.896 34.6736 325.955 36.0174C328.014 37.3612 329.484 39.2431 330.132 41.367C330.781 43.4909 330.572 45.736 329.538 47.749C328.505 49.7619 326.705 51.4284 324.422 52.486C327.639 53.4667 330.418 55.2582 332.382 57.6164C334.345 59.9745 335.396 62.7848 335.393 65.6641V69.7823H364.949C369.448 71.9553 374.258 73.6367 379.262 74.7859C393.864 78.1792 409.464 78.4552 423.509 83.2322C427.232 84.5006 430.937 86.1602 433.354 88.8617C438.932 95.0925 435.732 103.831 435.116 111.615C434.755 116.548 435.494 121.496 437.293 126.201H42.4991C29.7763 116.828 19.7644 105.969 18.0958 92.0986C17.2248 84.7065 18.9375 77.1703 18.5019 69.7823Z" fill="black"/>
<path d="M486.354 31.6975V191.478L476.568 186.125V31.6975H470.696L468.249 180.771L458.951 175.005L465.313 29.6384" stroke="#E0E0E0" stroke-miterlimit="10"/>
<path d="M498.593 43.2284L458.956 45.0816" stroke="#E0E0E0" stroke-miterlimit="10"/>
<path d="M496.146 51.4647L458.956 52.7002" stroke="#E0E0E0" stroke-miterlimit="10"/>
<path d="M496.146 61.3483L458.956 62.1719" stroke="#E0E0E0" stroke-miterlimit="10"/>
<path d="M496.146 70.4082L458.956 71.6437" stroke="#E0E0E0" stroke-miterlimit="10"/>
<path d="M496.146 80.7036H457.488" stroke="#E0E0E0" stroke-miterlimit="10"/>
<path d="M496.146 90.999L456.51 89.7635" stroke="#E0E0E0" stroke-miterlimit="10"/>
<path d="M496.146 100.471L456.51 98.8235" stroke="#E0E0E0" stroke-miterlimit="10"/>
<path d="M496.146 110.766L456.51 108.295" stroke="#E0E0E0" stroke-miterlimit="10"/>
<path d="M497.125 119.826L455.042 116.532" stroke="#E0E0E0" stroke-miterlimit="10"/>
<path d="M497.125 130.122L455.042 124.768" stroke="#E0E0E0" stroke-miterlimit="10"/>
<path d="M497.125 142.064L453.574 135.475" stroke="#E0E0E0" stroke-miterlimit="10"/>
<path d="M497.125 155.654L453.574 144.947" stroke="#E0E0E0" stroke-miterlimit="10"/>
<path d="M498.103 169.656L452.106 154.419" stroke="#E0E0E0" stroke-miterlimit="10"/>
<path d="M498.103 182.422L452.106 163.479" stroke="#E0E0E0" stroke-miterlimit="10"/>
<path d="M448.186 31.2857L440.357 171.711H430.08L436.442 31.2857H425.187L417.847 171.711H406.592L412.954 31.2857H399.252L394.359 171.711H382.125L387.508 32.5211H374.785L371.849 171.711H360.594L364.02 31.2857H352.765L350.318 171.711H339.553L341.999 31.2857H329.276V171.711H316.554V31.2857H304.81L306.767 171.711H296.491L293.555 31.2857H281.811L285.725 171.711H275.449L270.556 31.2857H260.28L264.194 171.711H254.897L247.557 31.2857H237.77L245.599 171.711H235.813L225.047 31.2857H213.303L227.005 171.711H217.707L204.495 31.2857H195.197L208.899 171.711H198.623L185.411 29.6384H176.113L191.283 171.711H181.496L165.837 29.6384" stroke="#E0E0E0" stroke-miterlimit="10"/>
<path d="M143.817 31.6975L158.497 174.182L151.157 179.124L139.902 31.6975H132.073L139.902 184.477L128.647 190.654L124.248 29.6384" stroke="#E0E0E0" stroke-miterlimit="10"/>
<path d="M113.483 47.7583H158.502" stroke="#E0E0E0" stroke-miterlimit="10"/>
<path d="M113.483 58.0537H158.502" stroke="#E0E0E0" stroke-miterlimit="10"/>
<path d="M113.483 69.5846L158.502 68.3491" stroke="#E0E0E0" stroke-miterlimit="10"/>
<path d="M113.483 79.4681L160.459 77.4091" stroke="#E0E0E0" stroke-miterlimit="10"/>
<path d="M113.483 90.5872L160.459 88.9399" stroke="#E0E0E0" stroke-miterlimit="10"/>
<path d="M113.483 102.53L162.417 100.471" stroke="#E0E0E0" stroke-miterlimit="10"/>
<path d="M113.483 114.061L162.417 109.943" stroke="#E0E0E0" stroke-miterlimit="10"/>
<path d="M113.483 127.239L162.417 117.355" stroke="#E0E0E0" stroke-miterlimit="10"/>
<path d="M113.483 138.77L164.374 124.356" stroke="#E0E0E0" stroke-miterlimit="10"/>
<path d="M113.483 150.712L164.374 134.24" stroke="#E0E0E0" stroke-miterlimit="10"/>
<path d="M112.015 162.243L162.676 144.35" stroke="#E0E0E0" stroke-miterlimit="10"/>
<path d="M112.015 175.421L164.374 153.183" stroke="#E0E0E0" stroke-miterlimit="10"/>
<path d="M112.015 187.364L165.842 162.243" stroke="#E0E0E0" stroke-miterlimit="10"/>
<path d="M458.956 43.2284L158.502 45.2875" stroke="#E0E0E0" stroke-miterlimit="10"/>
<path d="M458.712 50.641L158.257 52.7001" stroke="#E0E0E0" stroke-miterlimit="10"/>
<path d="M458.467 58.0537L158.013 60.1128" stroke="#E0E0E0" stroke-miterlimit="10"/>
<path d="M458.222 65.4664L157.768 67.5255" stroke="#E0E0E0" stroke-miterlimit="10"/>
<path d="M457.978 72.8792L157.523 74.9382" stroke="#E0E0E0" stroke-miterlimit="10"/>
<path d="M457.733 80.2917L161.193 82.3508" stroke="#E0E0E0" stroke-miterlimit="10"/>
<path d="M457.488 87.7045L160.949 89.7635" stroke="#E0E0E0" stroke-miterlimit="10"/>
<path d="M457.244 95.1172L160.704 97.1763" stroke="#E0E0E0" stroke-miterlimit="10"/>
<path d="M456.999 102.53L160.459 104.589" stroke="#E0E0E0" stroke-miterlimit="10"/>
<path d="M456.754 109.943L163.151 112.002" stroke="#E0E0E0" stroke-miterlimit="10"/>
<path d="M456.51 117.355L162.906 119.414" stroke="#E0E0E0" stroke-miterlimit="10"/>
<path d="M456.265 124.768L162.661 126.827" stroke="#E0E0E0" stroke-miterlimit="10"/>
<path d="M456.02 132.181L164.374 134.24" stroke="#E0E0E0" stroke-miterlimit="10"/>
<path d="M455.776 139.593L164.129 141.652" stroke="#E0E0E0" stroke-miterlimit="10"/>
<path d="M455.531 147.006L165.353 149.065" stroke="#E0E0E0" stroke-miterlimit="10"/>
<path d="M455.286 154.419L165.108 156.478" stroke="#E0E0E0" stroke-miterlimit="10"/>
<path d="M455.042 161.831L164.863 163.89" stroke="#E0E0E0" stroke-miterlimit="10"/>
<path d="M498.099 198.479L453.569 171.711H164.369L113.483 198.479" stroke="#E0E0E0" stroke-width="3" stroke-miterlimit="10"/>
<path d="M500.863 169.516C500.863 169.516 501.994 141.405 520.06 125.53C527.692 118.909 532.565 110.383 533.948 101.233C534.565 96.8862 534.707 92.5012 534.373 88.1328" stroke="#535461" stroke-width="2" stroke-miterlimit="10"/>
<path d="M545.687 78.0721C544.449 81.2102 534.114 88.4252 534.114 88.4252C534.114 88.4252 530.948 77.4379 532.186 74.2999C532.799 72.8133 534.083 71.5895 535.76 70.8932C537.437 70.197 539.372 70.0843 541.147 70.5795C542.922 71.0747 544.393 72.1379 545.244 73.5393C546.095 74.9407 546.255 76.5676 545.692 78.068L545.687 78.0721Z" fill="#15A89D"/>
<path d="M549.998 98.5723C546.935 100.631 533.595 101.97 533.595 101.97C533.595 101.97 538.033 91.2996 541.097 89.2323C541.823 88.7204 542.663 88.3356 543.568 88.1005C544.473 87.8654 545.425 87.7848 546.367 87.8634C547.31 87.9419 548.224 88.1781 549.057 88.558C549.89 88.9379 550.624 89.4539 551.216 90.0757C551.809 90.6975 552.248 91.4127 552.508 92.1792C552.768 92.9458 552.843 93.7483 552.73 94.5396C552.616 95.331 552.316 96.0954 551.847 96.7878C551.378 97.4803 550.749 98.087 549.998 98.5723Z" fill="#15A89D"/>
<path d="M537.804 128.145C533.918 128.627 521.606 124.109 521.606 124.109C521.606 124.109 531.838 116.783 535.724 116.285C537.568 116.092 539.429 116.514 540.909 117.46C542.388 118.407 543.369 119.804 543.641 121.351C543.912 122.899 543.454 124.474 542.363 125.741C541.272 127.007 539.636 127.864 537.804 128.128V128.145Z" fill="#15A89D"/>
<path d="M522.59 148.769C518.856 149.798 505.815 147.093 505.815 147.093C505.815 147.093 514.428 138.42 518.161 137.386C519.055 137.123 520.001 137.013 520.945 137.062C521.89 137.111 522.813 137.318 523.661 137.671C524.509 138.023 525.266 138.515 525.885 139.117C526.505 139.718 526.976 140.418 527.27 141.175C527.565 141.931 527.677 142.73 527.6 143.524C527.524 144.317 527.26 145.09 526.824 145.797C526.388 146.503 525.789 147.13 525.062 147.64C524.335 148.149 523.495 148.532 522.59 148.764V148.769Z" fill="#15A89D"/>
<path d="M519.174 98.6094C520.99 101.542 532.558 107.286 532.558 107.286C532.558 107.286 533.61 96.0191 531.799 93.0829C531.368 92.3852 530.778 91.7659 530.062 91.2602C529.347 90.7546 528.52 90.3725 527.629 90.1358C526.738 89.8991 525.8 89.8124 524.869 89.8806C523.938 89.9489 523.032 90.1709 522.203 90.5337C521.374 90.8966 520.639 91.3933 520.038 91.9956C519.437 92.5978 518.983 93.2937 518.701 94.0436C518.42 94.7935 518.317 95.5827 518.398 96.3661C518.48 97.1495 518.743 97.9118 519.174 98.6094Z" fill="#15A89D"/>
<path d="M501.749 122.931C504.524 125.274 517.604 127.84 517.604 127.84C517.604 127.84 514.604 116.824 511.829 114.481C510.491 113.385 508.694 112.777 506.826 112.786C504.959 112.796 503.171 113.423 501.848 114.532C500.525 115.641 499.773 117.143 499.755 118.714C499.736 120.286 500.452 121.8 501.749 122.931Z" fill="#15A89D"/>
<path d="M488.664 148.517C490.925 151.219 503.305 155.609 503.305 155.609C503.305 155.609 502.561 144.321 500.296 141.607C499.761 140.956 499.079 140.401 498.289 139.974C497.498 139.546 496.614 139.255 495.689 139.116C494.764 138.977 493.815 138.995 492.898 139.166C491.98 139.338 491.112 139.661 490.344 140.117C489.576 140.572 488.922 141.151 488.422 141.821C487.921 142.49 487.582 143.236 487.426 144.016C487.27 144.796 487.299 145.594 487.511 146.365C487.724 147.135 488.116 147.863 488.664 148.505V148.517Z" fill="#15A89D"/>
<path d="M508.203 194.637C508.203 194.637 509.334 166.526 527.4 150.651C535.032 144.03 539.905 135.504 541.288 126.353C541.905 122.007 542.047 117.622 541.713 113.254" stroke="#535461" stroke-width="2" stroke-miterlimit="10"/>
<path d="M553.027 103.193C551.789 106.331 541.454 113.546 541.454 113.546C541.454 113.546 538.288 102.559 539.526 99.4206C540.139 97.934 541.423 96.7102 543.1 96.014C544.777 95.3177 546.712 95.205 548.487 95.7002C550.262 96.1954 551.734 97.2587 552.584 98.6601C553.435 100.061 553.595 101.688 553.032 103.189L553.027 103.193Z" fill="#15A89D"/>
<path d="M557.338 123.693C554.275 125.752 540.935 127.091 540.935 127.091C540.935 127.091 545.374 116.42 548.437 114.353C549.163 113.841 550.003 113.456 550.908 113.221C551.813 112.986 552.765 112.906 553.707 112.984C554.65 113.063 555.564 113.299 556.397 113.679C557.23 114.059 557.964 114.575 558.557 115.197C559.149 115.818 559.588 116.534 559.848 117.3C560.108 118.067 560.183 118.869 560.07 119.66C559.956 120.452 559.656 121.216 559.187 121.909C558.718 122.601 558.089 123.208 557.338 123.693Z" fill="#15A89D"/>
<path d="M545.144 153.266C541.258 153.748 528.946 149.23 528.946 149.23C528.946 149.23 539.179 141.904 543.064 141.405C544.908 141.212 546.769 141.634 548.249 142.581C549.728 143.528 550.709 144.925 550.981 146.472C551.252 148.02 550.794 149.595 549.703 150.862C548.612 152.128 546.976 152.985 545.144 153.249V153.266Z" fill="#15A89D"/>
<path d="M529.93 173.889C526.196 174.919 513.156 172.213 513.156 172.213C513.156 172.213 521.768 163.541 525.501 162.507C526.395 162.244 527.341 162.134 528.285 162.183C529.23 162.232 530.153 162.439 531.001 162.791C531.849 163.144 532.605 163.636 533.225 164.238C533.845 164.839 534.316 165.539 534.61 166.296C534.905 167.052 535.017 167.851 534.94 168.644C534.864 169.438 534.6 170.211 534.164 170.918C533.728 171.624 533.129 172.251 532.402 172.76C531.675 173.27 530.835 173.652 529.93 173.885V173.889Z" fill="#15A89D"/>
<path d="M526.514 123.73C528.33 126.662 539.898 132.407 539.898 132.407C539.898 132.407 540.95 121.14 539.139 118.204C538.269 116.795 536.768 115.735 534.969 115.256C533.169 114.778 531.218 114.922 529.543 115.654C527.869 116.387 526.61 117.65 526.042 119.164C525.474 120.679 525.644 122.321 526.514 123.73Z" fill="#15A89D"/>
<path d="M509.089 148.052C511.864 150.395 524.944 152.961 524.944 152.961C524.944 152.961 521.944 141.945 519.169 139.602C517.831 138.506 516.034 137.897 514.167 137.907C512.299 137.916 510.511 138.543 509.188 139.652C507.865 140.761 507.113 142.264 507.095 143.835C507.076 145.406 507.793 146.921 509.089 148.052Z" fill="#15A89D"/>
<path d="M496.004 173.638C498.265 176.34 510.645 180.73 510.645 180.73C510.645 180.73 509.901 169.442 507.636 166.728C507.101 166.077 506.419 165.522 505.629 165.095C504.838 164.667 503.954 164.376 503.029 164.237C502.104 164.098 501.155 164.115 500.238 164.287C499.32 164.459 498.452 164.782 497.684 165.237C496.916 165.693 496.262 166.272 495.762 166.942C495.261 167.611 494.923 168.357 494.766 169.137C494.61 169.917 494.639 170.715 494.852 171.486C495.064 172.256 495.456 172.984 496.004 173.626V173.638Z" fill="#15A89D"/>
<path d="M106.382 44.3938C106.622 36.4251 113.179 29.4242 122.433 27.7152L122.697 27.6699C123.071 27.6072 123.451 27.5768 123.832 27.5793H490.054C492.759 27.5608 495.423 28.1322 497.787 29.2378C500.151 30.3435 502.135 31.9457 503.545 33.8883L503.638 34.0242C504.176 34.8192 504.466 35.7161 504.48 36.631L507.88 198.475H496.136L492.222 40.3374C492.222 40.3374 492.222 35.8074 487.328 35.3956C486.579 35.3338 477.497 35.2885 462.661 35.2597L454.058 172.123H449.165L458.731 35.2556C393.502 35.1485 233.845 35.2844 159.745 35.3585L169.248 171.299H164.354L155.82 35.3626L127.615 35.3915C125.547 35.3926 123.515 35.8493 121.721 36.7163C119.928 37.5833 118.436 38.8303 117.393 40.3332L113.478 198.471H101.734L106.382 44.3938Z" fill="#E0E0E0"/>
<path d="M101.67 201.811C101.67 201.811 100.085 180.042 112.646 166.666C117.958 161.084 120.975 154.203 121.244 147.055C121.339 143.659 121.063 140.262 120.422 136.908" stroke="#535461" stroke-width="2" stroke-miterlimit="10"/>
<path d="M128.28 128.45C127.6 130.949 120.25 137.16 120.25 137.16C120.25 137.16 116.825 128.874 117.525 126.378C117.685 125.783 117.984 125.221 118.403 124.723C118.821 124.225 119.353 123.802 119.966 123.477C120.58 123.151 121.263 122.931 121.978 122.829C122.692 122.726 123.424 122.743 124.131 122.878C124.838 123.013 125.506 123.264 126.097 123.617C126.689 123.969 127.192 124.416 127.579 124.933C127.965 125.449 128.226 126.024 128.349 126.625C128.471 127.227 128.451 127.842 128.29 128.437L128.28 128.45Z" fill="#15A89D"/>
<path d="M133.399 144.008C131.211 145.795 121.033 147.648 121.033 147.648C121.033 147.648 123.524 139.136 125.711 137.353C126.231 136.928 126.845 136.594 127.518 136.369C128.191 136.143 128.91 136.032 129.635 136.041C130.359 136.05 131.074 136.178 131.739 136.42C132.404 136.661 133.007 137.011 133.511 137.448C134.016 137.885 134.414 138.402 134.681 138.968C134.949 139.535 135.081 140.14 135.071 140.75C135.06 141.359 134.907 141.961 134.62 142.521C134.333 143.081 133.918 143.587 133.399 144.012V144.008Z" fill="#15A89D"/>
<path d="M126.573 167.589C123.637 168.202 113.718 165.476 113.718 165.476C113.718 165.476 120.965 159.188 123.93 158.574C125.351 158.279 126.852 158.471 128.104 159.108C129.356 159.745 130.257 160.774 130.607 161.969C130.958 163.165 130.729 164.428 129.973 165.482C129.216 166.536 127.993 167.294 126.573 167.589Z" fill="#15A89D"/>
<path d="M116.629 184.453C113.835 185.478 103.534 184.197 103.534 184.197C103.534 184.197 109.406 176.966 112.215 175.961C112.882 175.703 113.603 175.559 114.336 175.538C115.07 175.517 115.801 175.62 116.486 175.84C117.172 176.06 117.798 176.393 118.329 176.819C118.86 177.246 119.284 177.757 119.578 178.323C119.871 178.889 120.026 179.499 120.036 180.116C120.045 180.734 119.908 181.347 119.633 181.919C119.357 182.492 118.949 183.012 118.432 183.45C117.914 183.888 117.298 184.234 116.619 184.469L116.629 184.453Z" fill="#15A89D"/>
<path d="M109.612 145.968C111.266 148.122 120.7 151.837 120.7 151.837C120.7 151.837 120.529 143.073 118.87 140.919C118.075 139.886 116.824 139.161 115.393 138.904C113.963 138.647 112.469 138.879 111.242 139.548C110.014 140.218 109.152 141.27 108.847 142.474C108.541 143.678 108.816 144.935 109.612 145.968Z" fill="#15A89D"/>
<path d="M98.2838 165.797C100.628 167.444 110.953 168.606 110.953 168.606C110.953 168.606 107.674 160.287 105.325 158.648C104.768 158.259 104.124 157.966 103.432 157.786C102.74 157.606 102.012 157.543 101.291 157.6C100.569 157.657 99.8684 157.832 99.2278 158.117C98.5872 158.402 98.0195 158.79 97.5571 159.26C97.0948 159.729 96.7468 160.271 96.5331 160.853C96.3194 161.436 96.2441 162.048 96.3116 162.655C96.3791 163.262 96.588 163.852 96.9264 164.391C97.2648 164.93 97.726 165.408 98.2838 165.797Z" fill="#15A89D"/>
<path d="M90.4201 186.359C92.4019 188.307 102.34 190.93 102.34 190.93C102.34 190.93 100.779 182.282 98.7927 180.318C97.8401 179.383 96.4852 178.805 95.0261 178.711C93.567 178.616 92.1231 179.014 91.0122 179.815C89.9013 180.617 89.2143 181.757 89.1023 182.985C88.9904 184.213 89.4626 185.428 90.4152 186.363L90.4201 186.359Z" fill="#15A89D"/>
<path opacity="0.5" d="M128.28 128.45C127.6 130.949 120.25 137.16 120.25 137.16C120.25 137.16 116.825 128.874 117.525 126.378C117.685 125.783 117.984 125.221 118.403 124.723C118.821 124.225 119.353 123.802 119.966 123.477C120.58 123.151 121.263 122.931 121.978 122.829C122.692 122.726 123.424 122.743 124.131 122.878C124.838 123.013 125.506 123.264 126.097 123.617C126.689 123.969 127.192 124.416 127.579 124.933C127.965 125.449 128.226 126.024 128.349 126.625C128.471 127.227 128.451 127.842 128.29 128.437L128.28 128.45Z" fill="white"/>
<path opacity="0.5" d="M133.399 144.008C131.211 145.795 121.033 147.648 121.033 147.648C121.033 147.648 123.524 139.136 125.711 137.353C126.231 136.928 126.845 136.594 127.518 136.369C128.191 136.143 128.91 136.032 129.635 136.041C130.359 136.05 131.074 136.178 131.739 136.42C132.404 136.661 133.007 137.011 133.511 137.448C134.016 137.885 134.414 138.402 134.681 138.968C134.949 139.535 135.081 140.14 135.071 140.75C135.06 141.359 134.907 141.961 134.62 142.521C134.333 143.081 133.918 143.587 133.399 144.012V144.008Z" fill="white"/>
<path opacity="0.5" d="M126.573 167.589C123.637 168.202 113.718 165.476 113.718 165.476C113.718 165.476 120.965 159.188 123.93 158.574C125.351 158.279 126.852 158.471 128.104 159.108C129.356 159.745 130.257 160.774 130.607 161.969C130.958 163.165 130.729 164.428 129.973 165.482C129.216 166.536 127.993 167.294 126.573 167.589Z" fill="white"/>
<path opacity="0.5" d="M116.629 184.453C113.835 185.478 103.534 184.197 103.534 184.197C103.534 184.197 109.406 176.966 112.215 175.961C112.882 175.703 113.603 175.559 114.336 175.538C115.07 175.517 115.801 175.62 116.486 175.84C117.172 176.06 117.798 176.393 118.329 176.819C118.86 177.246 119.284 177.757 119.578 178.323C119.871 178.889 120.026 179.499 120.036 180.116C120.045 180.734 119.908 181.347 119.633 181.919C119.357 182.492 118.949 183.012 118.432 183.45C117.914 183.888 117.298 184.234 116.619 184.469L116.629 184.453Z" fill="white"/>
<path opacity="0.5" d="M109.612 145.968C111.266 148.122 120.7 151.837 120.7 151.837C120.7 151.837 120.529 143.073 118.87 140.919C118.075 139.886 116.824 139.161 115.393 138.904C113.963 138.647 112.469 138.879 111.242 139.548C110.014 140.218 109.152 141.27 108.847 142.474C108.541 143.678 108.816 144.935 109.612 145.968Z" fill="white"/>
<path opacity="0.5" d="M98.2838 165.797C100.628 167.444 110.953 168.606 110.953 168.606C110.953 168.606 107.674 160.287 105.325 158.648C104.768 158.259 104.124 157.966 103.432 157.786C102.74 157.606 102.012 157.543 101.291 157.6C100.569 157.657 99.8684 157.832 99.2278 158.117C98.5872 158.402 98.0195 158.79 97.5571 159.26C97.0948 159.729 96.7468 160.271 96.5331 160.853C96.3194 161.436 96.2441 162.048 96.3116 162.655C96.3791 163.262 96.588 163.852 96.9264 164.391C97.2648 164.93 97.726 165.408 98.2838 165.797Z" fill="white"/>
<path opacity="0.5" d="M90.4201 186.359C92.4019 188.307 102.34 190.93 102.34 190.93C102.34 190.93 100.779 182.282 98.7927 180.318C97.8401 179.383 96.4852 178.805 95.0261 178.711C93.567 178.616 92.1231 179.014 91.0122 179.815C89.9013 180.617 89.2143 181.757 89.1023 182.985C88.9904 184.213 89.4626 185.428 90.4152 186.363L90.4201 186.359Z" fill="white"/>
<g opacity="0.1">
<path opacity="0.1" d="M187.025 118.109C186.967 118.047 186.937 118.006 186.937 118.006L187.025 118.109Z" fill="url(#paint0_linear_13_287)"/>
</g>
<path d="M267.933 123.73C267.84 126.353 269.773 127.338 269.773 127.338L287.829 140.796C294.798 142.921 295.659 154.069 295.659 154.069C296.344 155.098 296.638 156.886 296.638 159.011C296.554 165.6 294.343 174.783 294.343 174.783L294.406 174.87L294.343 175.137L294.406 175.224L294.343 175.491C294.688 175.961 295.062 176.416 295.463 176.854C293.506 180.227 289.86 185.655 288.285 186.812C286.107 188.406 281.752 200.262 281.752 200.262L281.894 200.233L281.752 200.616H281.845C280.788 202.334 279.711 204.549 279.481 206.736C279.326 208.17 278.973 209.584 278.429 210.949C277.787 212.535 277.731 214.248 278.268 215.862C278.699 217.153 278.984 218.475 279.119 219.811C279.392 222.385 280.144 224.907 281.346 227.286C283.337 231.268 285.975 236.708 286.112 237.803C286.185 238.396 286.357 239.269 286.552 240.171L286.44 240.196L281.757 249.132C281.757 249.132 280.45 251.603 277.842 251.603C277.588 251.602 277.336 251.646 277.104 251.732C276.871 251.819 276.663 251.946 276.494 252.105C276.324 252.264 276.196 252.452 276.119 252.656C276.042 252.86 276.017 253.075 276.046 253.288C276.012 253.536 276.05 253.788 276.159 254.021V254.045C276.159 254.087 276.203 254.128 276.222 254.169L276.266 254.239C276.291 254.28 276.32 254.317 276.354 254.358L276.413 254.428L276.521 254.54L276.594 254.61L276.721 254.717L276.809 254.787L276.956 254.885L277.064 254.951L277.235 255.042L277.362 255.108L277.553 255.19L277.7 255.252L277.911 255.326L278.077 255.384L278.312 255.45L278.498 255.499L278.762 255.553L278.972 255.594L279.261 255.635L279.491 255.668L279.809 255.697L280.059 255.721H280.411H280.675H281.346H281.811H282.07C282.321 255.721 282.58 255.704 282.848 255.668C291.343 254.96 297.655 249.491 297.655 249.491V249.388V249.285V249.182L297.685 249.153C297.685 249.153 297.137 242.033 294.029 240.422C293.72 239.1 293.556 237.755 293.54 236.407C293.54 231.465 295.282 226.495 290.491 218.353C290.491 218.353 290.271 216.228 292.018 213.045C293.042 211.339 294.176 209.681 295.414 208.078L295.63 208.058L295.282 208.445C295.282 208.445 300.944 208.091 301.379 204.903C301.42 204.638 301.494 204.377 301.599 204.125C302.911 200.921 309.243 196.379 312.052 196.053C315.1 195.699 321.197 201.716 323.595 205.966C323.732 206.209 323.874 206.439 324.016 206.649C326.355 210.113 329.257 209.33 329.257 209.33C329.154 209.227 329.066 209.129 328.973 209.026C329.069 209.015 329.164 208.999 329.257 208.976C329 208.714 328.763 208.439 328.547 208.153C330.725 210.137 333.039 211.966 334.048 213.033C336.225 215.335 335.139 216.924 335.139 217.633C335.139 220.824 330.128 230.197 331.434 235.341C332.08 237.882 331.341 240.855 330.426 243.21H330.236C326.531 244.388 326.101 248.613 326.13 250.738C326.13 250.804 326.13 250.87 326.13 250.932C326.13 251.039 326.13 251.142 326.13 251.241V251.307C326.13 251.386 326.13 251.463 326.13 251.537V251.591C326.13 251.673 326.13 251.751 326.13 251.822C326.13 251.896 326.13 251.966 326.13 252.023V252.048V252.172V252.204V252.27V252.316C326.13 252.316 336.582 256.207 345.513 257.257C345.826 257.295 346.124 257.323 346.413 257.344H346.677L347.24 257.373H348.003H348.248C348.419 257.373 348.581 257.373 348.737 257.34H348.894C349.096 257.318 349.287 257.29 349.467 257.257L349.584 257.233C349.721 257.204 349.848 257.179 349.971 257.146L350.132 257.101L350.421 257.006L350.568 256.949C350.656 256.912 350.739 256.875 350.822 256.833L350.954 256.747C351.053 256.693 351.148 256.634 351.238 256.57C351.327 256.505 351.411 256.435 351.488 256.36L351.551 256.294C351.6 256.244 351.646 256.191 351.688 256.137L351.747 256.055C351.783 256.003 351.814 255.951 351.84 255.898L351.884 255.816C351.911 255.757 351.934 255.696 351.952 255.635V255.573C351.974 255.493 351.988 255.412 351.996 255.33C351.996 255.33 351.996 255.301 351.996 255.285C352.001 255.219 352.001 255.153 351.996 255.087C351.996 255.062 351.996 255.034 351.996 255.009C352.124 253.922 351.101 252.839 350.078 253.003C347.901 253.358 345.067 251.233 345.067 251.233L339.112 243.046C339.019 241.131 339.274 238.697 340.712 236.72C343.546 232.829 347.03 224.51 347.03 224.51C347.03 224.51 346.594 219.379 348.336 216.899C350.078 214.42 348.336 210.529 348.336 210.529L343.007 201.881C343.619 201.881 343.986 201.881 343.986 201.881L343.795 201.526H343.986C343.986 201.526 337.453 189.316 334.84 187.899C332.976 186.89 330.343 181.207 328.968 178.016C329.516 177.773 329.82 177.604 329.82 177.604C329.82 177.604 331.346 162.206 331.346 152.483C331.346 142.76 339.176 138.856 339.176 138.856L357.316 129.821C362.106 128.227 362.762 124.159 362.762 124.159L362.708 124.043C362.747 123.891 362.762 123.804 362.762 123.804L362.708 123.689C362.747 123.537 362.762 123.45 362.762 123.45L354.052 104.692C354.052 104.75 353.998 104.799 353.973 104.853C353.357 101.62 351.453 96.5586 345.557 96.2044C336.847 95.6732 333.813 99.3919 335.54 99.746C337.267 100.1 344.686 102.579 344.686 102.579L347.622 106.562C347.431 106.508 347.323 106.471 347.323 106.471C347.49 106.525 347.636 106.614 347.749 106.73L347.945 106.994C347.563 106.903 347.328 106.825 347.328 106.825C347.382 106.844 347.432 106.867 347.48 106.895C347.523 106.914 347.564 106.936 347.602 106.961C347.642 106.991 347.679 107.022 347.715 107.056C347.754 107.088 347.792 107.123 347.827 107.159C347.866 107.2 347.901 107.245 347.94 107.291L347.999 107.365C347.773 107.314 347.551 107.253 347.333 107.183C349.613 107.801 350.568 119.443 350.758 122.421L339.479 126.65C339.479 126.65 328.156 126.65 323.365 128.952C319.162 130.97 317.136 129.31 316.705 128.874C316.999 129.19 317.258 129.494 317.483 129.788L317.361 129.718L317.249 129.652L317.156 129.59L317.053 129.516L317.019 129.492C316.028 127.932 315.376 126.236 315.091 124.484C315.625 123.411 315.887 122.256 315.86 121.093C315.833 119.93 315.518 118.784 314.934 117.73C315.118 117.839 315.319 117.927 315.531 117.99C315.041 117.218 314.711 116.383 314.552 115.519C314.445 114.551 314.772 113.521 314.283 112.636C314.231 112.546 314.173 112.459 314.107 112.376C314.107 112.348 314.107 112.315 314.068 112.282C313.578 111.384 312.38 110.89 311.621 110.107C311.132 109.58 310.853 108.938 310.383 108.394C309.788 107.754 308.964 107.291 308.034 107.073C307.103 106.855 306.113 106.894 305.211 107.183C304.496 107.426 303.831 107.834 303.058 107.846C302.658 107.83 302.261 107.772 301.878 107.674C299.481 107.254 296.984 107.648 294.93 108.769C292.927 109.882 291.345 111.454 290.369 113.299C289.841 114.205 289.497 115.18 289.351 116.182C289.294 117.232 289.314 118.284 289.41 119.332C289.454 121.058 289.151 122.87 290.027 124.439C290.08 124.537 290.149 124.624 290.208 124.719C290.208 124.743 290.208 124.768 290.242 124.793C291.074 126.288 292.816 127.264 294.484 128.207L296.642 129.405L296.887 129.541C296.269 129.489 295.648 129.478 295.028 129.508C291.759 129.685 285.241 127.037 285.241 127.037L278.439 121.856L281.757 110.4L281.63 110.478L281.757 110.046L281.63 110.124L281.757 109.691C281.693 109.733 281.634 109.77 281.571 109.807L285.021 105.087C285.021 105.087 292.424 102.616 294.166 102.254C295.908 101.892 292.86 98.1853 284.15 98.7124C277.739 99.1036 276.046 105.05 275.601 108.184C275.224 107.834 275.004 107.579 275.004 107.579L268.897 119.736C268.259 120.877 267.925 122.123 267.918 123.384C267.928 123.504 267.928 123.623 267.933 123.73ZM317.288 129.907L317.464 130.13L317.288 129.907ZM299.833 129.957C300.318 129.821 300.752 129.579 301.091 129.257C301.638 129.432 302.2 129.57 302.774 129.669C302.618 130.118 302.4 130.551 302.123 130.958C302.04 130.682 302.001 130.513 302.001 130.513C301.291 130.293 300.567 130.106 299.833 129.953V129.957ZM296.148 207.008C296.638 206.345 297.127 205.698 297.616 205.089C297.195 205.739 296.638 206.448 296.148 207.008Z" fill="url(#paint1_linear_13_287)"/>
<path d="M340.619 199.64L346.858 210.142C346.858 210.142 348.522 213.992 346.858 216.442C345.195 218.893 345.611 223.97 345.611 223.97C345.611 223.97 342.283 232.207 339.577 236.049C336.871 239.891 338.535 245.521 338.535 245.521L327.72 246.571C327.72 246.571 331.88 239.743 330.656 234.665C329.433 229.588 334.194 220.318 334.194 217.159C334.194 216.459 335.237 214.882 333.152 212.608C331.067 210.335 323.17 204.557 323.365 201.23L340.619 199.64Z" fill="#F7BBC3"/>
<path d="M285.5 197.19C285.5 197.19 281.507 201.843 281.042 206.373C280.902 207.788 280.574 209.184 280.064 210.537C279.449 212.109 279.395 213.798 279.907 215.396C280.319 216.675 280.591 217.984 280.719 219.304C280.976 221.852 281.692 224.351 282.843 226.717C284.747 230.658 287.247 236.037 287.394 237.12C287.604 238.87 288.642 243.07 288.642 243.07L296.96 245.698C296.96 245.698 294.465 240.62 294.465 235.719C294.465 230.819 296.129 225.918 291.529 217.863C291.529 217.863 291.318 215.763 292.997 212.612C294.675 209.462 301.11 201.234 301.11 201.234L285.5 197.19Z" fill="#F7BBC3"/>
<path opacity="0.1" d="M298.947 203.433C299.632 204.059 296.104 208.045 296.104 208.045C296.104 208.045 301.511 207.695 301.927 204.545C301.966 204.283 302.037 204.025 302.138 203.775C303.39 200.608 309.439 196.115 312.12 195.794C315.056 195.444 320.855 201.395 323.145 205.595C323.277 205.838 323.409 206.06 323.546 206.27C325.783 209.697 328.552 208.923 328.552 208.923C327.084 207.399 326.781 206.192 327.241 205.216C329.061 201.44 342.694 201.551 342.694 201.551C342.694 201.551 336.455 189.472 333.959 188.072C331.464 186.672 327.51 176.167 327.51 176.167C327.51 176.167 297.763 173.366 297.557 174.589C297.352 175.813 291.524 185.445 289.444 187.018C287.365 188.591 283.21 200.328 283.21 200.328C290.281 198.578 298.081 202.865 298.913 203.392L298.947 203.433Z" fill="black"/>
<path d="M298.947 203.083C299.632 203.709 296.104 207.695 296.104 207.695C296.104 207.695 301.511 207.345 301.927 204.195C301.967 203.933 302.037 203.675 302.138 203.425C303.39 200.258 309.439 195.765 312.12 195.444C315.056 195.094 320.855 201.045 323.145 205.245C323.277 205.488 323.409 205.71 323.546 205.921C325.783 209.347 328.552 208.573 328.552 208.573C327.084 207.049 326.781 205.842 327.241 204.866C329.061 201.09 342.694 201.201 342.694 201.201C342.694 201.201 336.455 189.123 333.959 187.722C331.464 186.322 327.51 175.817 327.51 175.817C327.51 175.817 297.763 173.016 297.557 174.239C297.352 175.463 291.524 185.095 289.444 186.668C287.365 188.241 283.205 199.974 283.205 199.974C290.276 198.224 298.076 202.511 298.908 203.038L298.947 203.083Z" fill="#565171"/>
<path opacity="0.1" d="M338.021 242.267L343.741 250.409C343.741 250.409 346.447 252.509 348.527 252.159C350.607 251.809 352.686 257.06 344.157 256.01C335.628 254.96 325.646 251.109 325.646 251.109C325.646 251.109 324.711 244.018 329.492 242.461L338.021 242.267Z" fill="black"/>
<path opacity="0.1" d="M287.683 239.451L283.21 248.292C283.21 248.292 281.962 250.763 279.467 250.763C276.971 250.763 276.139 255.141 284.252 254.441C292.366 253.741 298.399 248.313 298.399 248.313C298.399 248.313 297.773 239.912 294.029 239.385C291.93 239.049 289.772 239.071 287.683 239.451Z" fill="black"/>
<path d="M338.021 242.617L343.741 250.759C343.741 250.759 346.447 252.859 348.527 252.509C350.607 252.159 352.686 257.41 344.157 256.36C335.628 255.31 325.646 251.459 325.646 251.459C325.646 251.459 324.711 244.368 329.492 242.811L338.021 242.617Z" fill="#B77983"/>
<path d="M287.683 239.817L283.21 248.659C283.21 248.659 281.962 251.13 279.467 251.13C276.971 251.13 276.139 255.507 284.252 254.807C292.366 254.107 298.399 248.679 298.399 248.679C298.399 248.679 297.773 240.278 294.029 239.751C291.93 239.415 289.772 239.438 287.683 239.817Z" fill="#B77983"/>
<g opacity="0.1">
<path opacity="0.1" d="M298.595 174.26C298.384 175.496 292.561 185.116 290.482 186.689C288.573 188.134 284.908 198.145 284.321 199.768C283.944 199.83 283.572 199.9 283.2 199.99C283.2 199.99 287.36 188.262 289.439 186.685C291.519 185.107 297.342 175.479 297.553 174.256C297.592 174.013 298.81 173.926 300.724 173.951C299.432 173.972 298.634 174.062 298.595 174.26Z" fill="black"/>
<path opacity="0.1" d="M313.163 195.44C316.099 195.09 321.897 201.04 324.187 205.241C324.319 205.484 324.452 205.706 324.589 205.916C325.88 207.893 327.344 208.47 328.356 208.606C327.686 208.708 325.42 208.795 323.546 205.916C323.409 205.706 323.277 205.484 323.145 205.241C321.046 201.386 315.976 196.066 312.903 195.481L313.163 195.44Z" fill="black"/>
<path opacity="0.1" d="M298.947 203.083L298.913 203.054C298.243 202.642 293.041 199.76 287.34 199.583C293.432 199.406 299.241 202.605 299.955 203.054L299.989 203.083C300.591 203.635 297.939 206.789 297.288 207.531C296.9 207.605 296.506 207.659 296.109 207.691C296.109 207.691 299.632 203.709 298.947 203.083Z" fill="black"/>
</g>
<path d="M352.476 108.262C352.476 108.262 352.476 97.584 344.157 97.0568C335.838 96.5297 332.902 100.207 334.591 100.557C336.279 100.907 343.325 103.358 343.325 103.358L347.901 109.835L352.476 108.262Z" fill="#F7BBC3"/>
<path d="M277.177 110.713C277.177 110.713 277.177 100.034 285.495 99.5072C293.814 98.98 296.75 102.658 295.062 103.008C293.374 103.358 286.327 105.808 286.327 105.808L281.752 112.286L277.177 110.713Z" fill="#F7BBC3"/>
<path d="M314.826 121.741C314.826 121.741 314.2 128.742 319.402 132.77C324.603 136.797 307.339 141.871 307.339 141.871L299.642 134.17C299.642 134.17 305.881 131.019 302.578 125.592L314.826 121.741Z" fill="#F7BBC3"/>
<path opacity="0.1" d="M316.49 129.969C316.49 129.969 318.364 132.44 322.94 130.146C327.515 127.852 338.334 127.848 338.334 127.848L349.149 123.648C349.149 123.648 348.317 108.592 345.821 107.892C345.821 107.892 350.812 109.642 352.271 106.141L360.589 124.698C360.589 124.698 359.963 128.725 355.388 130.299L338.124 139.227C338.124 139.227 330.637 143.077 330.637 152.706C330.637 162.334 329.169 177.563 329.169 177.563C329.169 177.563 305.04 189.818 295.263 175.462C295.263 175.462 299.216 158.483 296.51 154.279C296.51 154.279 295.678 143.25 289.023 141.15L271.769 127.848C271.769 127.848 268.442 126.098 270.937 121.02L276.761 108.942C276.761 108.942 280.299 113.142 283.21 111.042L279.883 122.948L286.538 128.198C286.538 128.198 292.777 130.826 295.899 130.669C299.021 130.513 302.554 131.719 302.554 131.719C302.554 131.719 304.022 138.72 310.667 138.02C310.667 138.02 323.355 137.497 316.49 129.969Z" fill="black"/>
<path opacity="0.1" d="M316.49 129.269C316.49 129.269 318.364 131.74 322.94 129.446C327.515 127.152 338.334 127.169 338.334 127.169L349.149 122.968C349.149 122.968 348.317 107.912 345.821 107.212C345.821 107.212 350.812 108.962 352.271 105.462L360.589 124.018C360.589 124.018 359.963 128.046 355.388 129.619L338.124 138.556C338.124 138.556 330.637 142.406 330.637 152.034C330.637 161.663 329.169 176.892 329.169 176.892C329.169 176.892 305.039 189.147 295.262 174.791C295.262 174.791 299.216 157.812 296.51 153.607C296.51 153.607 295.678 142.579 289.023 140.479L271.759 127.173C271.759 127.173 268.432 125.423 270.928 120.345L276.751 108.267C276.751 108.267 280.289 112.467 283.2 110.367L279.873 122.272L286.528 127.523C286.528 127.523 292.767 130.15 295.889 129.994C299.011 129.837 302.544 131.044 302.544 131.044C302.544 131.044 304.012 138.045 310.657 137.345C310.667 137.32 323.355 136.797 316.49 129.269Z" fill="black"/>
<path d="M316.5 129.631L316.583 129.726L316.5 129.631Z" fill="#D39999"/>
<path d="M271.769 127.519L289.033 140.825C295.688 142.925 296.52 153.953 296.52 153.953C299.226 158.154 295.272 175.137 295.272 175.137C305.059 189.493 329.179 177.237 329.179 177.237C329.179 177.237 329.228 176.735 329.306 175.85C329.374 175.075 329.467 174.005 329.57 172.732C329.707 171.085 329.864 169.096 330.01 166.938C330.338 162.223 330.637 156.729 330.637 152.38C330.637 142.752 338.124 138.901 338.124 138.901L351.077 132.205L355.393 129.973C359.968 128.396 360.594 124.373 360.594 124.373L352.275 105.816C350.915 109.086 346.467 107.772 345.89 107.587C348.336 108.518 349.153 123.322 349.153 123.322L338.339 127.523C338.339 127.523 327.525 127.523 322.944 129.8C319.03 131.736 317.116 130.253 316.627 129.763C323.204 137.176 310.672 137.674 310.672 137.674C304.017 138.374 302.559 131.373 302.559 131.373C302.559 131.373 299.021 130.138 295.904 130.323C292.786 130.509 286.542 127.852 286.542 127.852L279.887 122.602L283.215 110.696C280.279 112.796 276.765 108.596 276.765 108.596L270.942 120.674C268.442 125.769 271.769 127.519 271.769 127.519Z" fill="#B45181"/>
<path opacity="0.1" d="M314.826 122.441C314.765 123.542 314.832 124.646 315.027 125.736C314.122 127.633 312.441 129.195 310.288 130.142C308.134 131.088 305.65 131.355 303.283 130.896C303.755 129.341 303.49 127.693 302.544 126.3L314.826 122.441Z" fill="black"/>
<path d="M305.573 130.41C311.202 130.41 315.766 126.569 315.766 121.832C315.766 117.094 311.202 113.254 305.573 113.254C299.943 113.254 295.38 117.094 295.38 121.832C295.38 126.569 299.943 130.41 305.573 130.41Z" fill="#F7BBC3"/>
<path opacity="0.1" d="M305.734 116.952C305.822 117.821 305.896 118.747 305.421 119.521C305.157 119.911 304.827 120.266 304.443 120.576L302.309 122.425C301.636 122.922 301.115 123.548 300.787 124.249C300.171 125.979 301.991 127.696 301.932 129.504C301.606 129.934 301.121 130.263 300.552 130.44C299.983 130.617 299.361 130.632 298.781 130.484C298.31 130.332 297.867 130.126 297.465 129.87L295.375 128.672C293.785 127.758 292.121 126.769 291.323 125.295C290.487 123.743 290.77 121.947 290.731 120.242C290.64 119.205 290.622 118.164 290.677 117.125C290.817 116.134 291.147 115.168 291.656 114.267C292.578 112.463 294.088 110.917 296.011 109.807C296.974 109.26 298.058 108.882 299.198 108.696C300.338 108.51 301.511 108.519 302.647 108.724C303.012 108.82 303.39 108.877 303.772 108.892C304.511 108.892 305.147 108.481 305.827 108.238C306.692 107.953 307.645 107.917 308.537 108.133C309.43 108.35 310.212 108.808 310.765 109.436C311.215 109.971 311.474 110.61 311.944 111.129C312.644 111.903 313.784 112.393 314.259 113.278C314.733 114.164 314.415 115.177 314.518 116.132C314.664 116.986 314.977 117.814 315.443 118.582C314.288 118.245 313.725 117.182 312.996 116.367C312.419 115.762 311.694 115.267 310.872 114.916C310.049 114.566 309.147 114.367 308.225 114.333C307.589 114.308 306.41 114.267 305.906 114.674C305.265 115.197 305.671 116.317 305.734 116.952Z" fill="black"/>
<path d="M305.529 116.602C305.617 117.471 305.69 118.397 305.216 119.171C304.951 119.561 304.622 119.916 304.237 120.226L302.074 122.083C301.403 122.577 300.882 123.198 300.552 123.895C299.936 125.625 301.756 127.342 301.697 129.15C301.371 129.58 300.886 129.909 300.318 130.086C299.749 130.263 299.126 130.278 298.546 130.13C298.075 129.978 297.632 129.772 297.23 129.516L295.17 128.334C293.579 127.42 291.915 126.432 291.118 124.957C290.281 123.405 290.565 121.609 290.526 119.904C290.434 118.867 290.416 117.826 290.472 116.787C290.611 115.796 290.942 114.831 291.451 113.929C292.372 112.126 293.882 110.579 295.806 109.469C296.768 108.922 297.852 108.545 298.992 108.359C300.132 108.172 301.305 108.182 302.441 108.386C302.806 108.482 303.184 108.539 303.567 108.555C304.305 108.555 304.942 108.143 305.622 107.9C306.487 107.616 307.439 107.579 308.332 107.795C309.224 108.012 310.007 108.47 310.559 109.098C311.009 109.634 311.269 110.272 311.739 110.791C312.438 111.565 313.578 112.055 314.053 112.941C314.528 113.826 314.21 114.839 314.312 115.795C314.459 116.648 314.771 117.476 315.237 118.245C314.082 117.907 313.52 116.845 312.791 116.029C312.213 115.424 311.489 114.93 310.666 114.579C309.843 114.228 308.941 114.029 308.02 113.995C307.383 113.97 306.204 113.929 305.7 114.337C305.054 114.847 305.446 115.963 305.529 116.602Z" fill="#74585E"/>
<g opacity="0.1">
<path opacity="0.1" d="M316.578 129.718C316.519 129.656 316.49 129.619 316.49 129.619L316.578 129.718Z" fill="black"/>
<path opacity="0.1" d="M281.355 111.297C282.04 111.309 282.703 111.1 283.21 110.713L283.009 111.421C282.455 111.515 281.881 111.472 281.355 111.297Z" fill="black"/>
<path opacity="0.1" d="M318.232 130.624C323.444 137.357 311.709 137.847 311.709 137.847C310.815 137.951 309.905 137.896 309.037 137.687C309.579 137.74 310.126 137.74 310.667 137.687C310.667 137.687 323.243 137.164 316.578 129.73C317.012 130.159 317.588 130.47 318.232 130.624Z" fill="black"/>
<path opacity="0.1" d="M296.941 130.496C296.097 130.514 295.255 130.43 294.44 130.245C294.925 130.316 295.417 130.342 295.908 130.323C297.204 130.277 298.501 130.387 299.76 130.649C298.83 130.506 297.884 130.455 296.941 130.496Z" fill="black"/>
<path opacity="0.1" d="M270.937 120.691L276.761 108.612C276.995 108.881 277.246 109.138 277.514 109.382L271.98 120.847C269.484 125.925 272.812 127.675 272.812 127.675L290.076 140.981C296.731 143.081 297.562 154.11 297.562 154.11C300.268 158.31 296.315 175.294 296.315 175.294C298.937 179.144 302.593 181.059 306.542 181.85C302.201 181.228 298.13 179.305 295.287 175.117C295.287 175.117 299.241 158.137 296.535 153.933C296.535 153.933 295.703 142.904 289.048 140.804L271.769 127.519C271.769 127.519 268.442 125.769 270.937 120.691Z" fill="black"/>
<path opacity="0.1" d="M345.821 107.562C346.248 107.701 346.688 107.807 347.137 107.879C349.418 109.564 350.186 123.491 350.186 123.491L339.372 127.692C339.372 127.692 328.557 127.692 323.977 129.969C321.736 131.085 320.145 131.065 319.084 130.756C320.062 130.805 321.32 130.587 322.915 129.796C327.49 127.519 338.31 127.519 338.31 127.519L349.124 123.318C349.124 123.318 348.317 108.262 345.821 107.562Z" fill="black"/>
<path opacity="0.1" d="M347.636 107.949C349.217 108.122 351.39 107.929 352.271 105.812L352.76 106.903C351.395 108.534 348.899 108.233 347.636 107.949Z" fill="black"/>
</g>
<path opacity="0.1" d="M330.01 166.934C330.338 162.219 330.637 156.725 330.637 152.376C330.637 142.748 338.124 138.897 338.124 138.897L351.077 132.201C343.541 133.849 333.514 136.686 332.614 140.026C331.146 145.454 328.454 145.977 329.492 155.263C329.922 159.142 330.095 163.039 330.01 166.934Z" fill="black"/>
<path opacity="0.1" d="M328.034 180.297C328.034 180.297 326.159 185.198 331.361 188.348L328.034 180.297Z" fill="black"/>
<path opacity="0.1" d="M298.913 180.297C298.913 180.297 298.287 183.975 295.791 185.375L298.913 180.297Z" fill="black"/>
<path opacity="0.1" d="M325.646 250.759C325.646 250.759 335.628 254.609 344.157 255.66C348.483 256.191 350.078 255.104 350.328 253.951C350.612 255.297 349.349 257.002 344.157 256.36C335.628 255.31 325.646 251.459 325.646 251.459C325.582 250.877 325.559 250.293 325.577 249.709C325.592 250.347 325.646 250.759 325.646 250.759Z" fill="black"/>
<path opacity="0.1" d="M284.042 254.432C292.155 253.732 298.189 248.305 298.189 248.305C298.189 248.305 297.88 244.162 296.403 241.514C298.062 244.129 298.399 248.655 298.399 248.655C298.399 248.655 292.366 254.082 284.252 254.783C280.108 255.141 278.297 254.173 277.852 253.135C278.532 254.029 280.372 254.75 284.042 254.432Z" fill="black"/>
<path d="M293.799 74.9341C293.798 78.5926 295.339 82.1327 298.15 84.9238C300.96 87.715 304.857 89.5758 309.145 90.1748C313.434 90.7738 317.835 90.0721 321.567 88.1946C325.298 86.3172 328.116 83.3859 329.518 79.9232C330.921 76.4604 330.817 72.691 329.226 69.2865C327.634 65.882 324.659 63.0636 320.828 61.3333C316.998 59.6031 312.562 59.0734 308.311 59.8386C304.06 60.6038 300.27 62.6142 297.616 65.5117C295.143 68.2119 293.801 71.5248 293.799 74.9341Z" fill="url(#paint2_linear_13_287)"/>
<path d="M294.475 74.9341C294.469 78.4597 295.95 81.8726 298.656 84.5643C301.361 87.2561 305.115 89.052 309.247 89.6317C313.379 90.2115 317.622 89.5375 321.219 87.73C324.816 85.9224 327.533 83.0987 328.886 79.7621C330.24 76.4256 330.141 72.793 328.609 69.5118C327.076 66.2306 324.209 63.5141 320.518 61.8463C316.827 60.1786 312.552 59.6681 308.455 60.4058C304.359 61.1434 300.707 63.0814 298.15 65.8741C295.772 68.4708 294.48 71.6558 294.475 74.9341Z" fill="#E0E0E0"/>
<path d="M302.245 67.6244V73.398" stroke="#535461" stroke-miterlimit="10"/>
<path d="M315.35 72.8832L308.191 76.8613" stroke="#535461" stroke-miterlimit="10"/>
<path d="M308.191 64.0375L316.573 66.9861" stroke="#535461" stroke-miterlimit="10"/>
<path d="M322.21 73.9087L321.75 82.8863" stroke="#535461" stroke-miterlimit="10"/>
<path d="M316.573 85.5795L307.124 81.6055" stroke="#535461" stroke-miterlimit="10"/>
<path d="M302.245 82.2479V87.2597" stroke="#535461" stroke-miterlimit="10"/>
<path d="M298.742 78.3974L294.621 76.8613" stroke="#535461" stroke-miterlimit="10"/>
<path d="M321.75 66.4713L321.437 62.2749" stroke="#535461" stroke-miterlimit="10"/>
<path d="M324.496 71.3472L329.604 72.5744" stroke="#535461" stroke-miterlimit="10"/>
<path d="M325.866 71.3471L321.907 65.5735L315.355 66.4712V72.8832L322.362 75.9636L325.866 71.3471Z" fill="#15A89D"/>
<path d="M298.15 65.8576L302.25 67.6243C303.62 66.0841 309.258 64.2886 309.258 64.2886L308.67 60.3475C304.488 61.0542 300.75 63.0115 298.15 65.8576Z" fill="#15A89D"/>
<path d="M309.258 76.2189L302.094 73.3979L298.13 78.1421L302.245 83.6563L309.258 82.7585V76.2189Z" fill="#15A89D"/>
<path d="M315.35 84.8095V89.5495C317.645 89.1941 319.833 88.4599 321.79 87.3891C323.746 86.3182 325.43 84.932 326.747 83.3105L321.75 81.585L315.35 84.8095Z" fill="#15A89D"/>
<path d="M53.0933 184.313C53.0934 187.382 54.3884 190.352 56.7475 192.692C59.1065 195.033 62.3765 196.593 65.9748 197.094C69.573 197.595 73.2658 197.005 76.3951 195.428C79.5244 193.852 81.887 191.392 83.0619 188.486C84.2368 185.58 84.1477 182.418 82.8105 179.562C81.4732 176.706 78.9747 174.343 75.7602 172.893C72.5456 171.443 68.8237 171.001 65.2578 171.645C61.6918 172.289 58.5133 173.977 56.2887 176.41C54.2164 178.675 53.0929 181.454 53.0933 184.313Z" fill="url(#paint3_linear_13_287)"/>
<path d="M53.661 184.312C53.6618 187.269 54.9096 190.128 57.1821 192.382C59.4546 194.636 62.6042 196.138 66.0697 196.62C69.5351 197.103 73.0915 196.534 76.105 195.015C79.1186 193.496 81.3937 191.127 82.5249 188.328C83.6562 185.53 83.5701 182.484 82.282 179.734C80.994 176.984 78.5877 174.708 75.4917 173.311C72.3958 171.915 68.8113 171.489 65.377 172.109C61.9427 172.729 58.8815 174.356 56.7389 176.698C54.7424 178.881 53.6602 181.558 53.661 184.312Z" fill="#E0E0E0"/>
<path d="M60.179 178.181V183.024" stroke="#535461" stroke-miterlimit="10"/>
<path d="M71.1695 182.591L65.1604 185.927" stroke="#535461" stroke-miterlimit="10"/>
<path d="M65.1604 175.17L72.1922 177.645" stroke="#535461" stroke-miterlimit="10"/>
<path d="M76.9193 183.452L76.5376 190.984" stroke="#535461" stroke-miterlimit="10"/>
<path d="M72.1922 193.241L64.265 189.905" stroke="#535461" stroke-miterlimit="10"/>
<path d="M60.179 190.444V194.649" stroke="#535461" stroke-miterlimit="10"/>
<path d="M57.238 187.216L53.7833 185.927" stroke="#535461" stroke-miterlimit="10"/>
<path d="M76.5376 177.213L76.2733 173.696" stroke="#535461" stroke-miterlimit="10"/>
<path d="M78.8375 181.302L83.1241 182.332" stroke="#535461" stroke-miterlimit="10"/>
<path d="M79.9874 181.302L76.6648 176.463L71.1695 177.213V182.591L77.0465 185.173L79.9874 181.302Z" fill="#15A89D"/>
<path d="M56.7389 176.698L60.1643 178.18C61.3142 176.891 66.0363 175.384 66.0363 175.384L65.547 172.09C62.0469 172.682 58.9188 174.318 56.7389 176.698Z" fill="#15A89D"/>
<path d="M66.0559 185.387L60.0517 183.023L56.7242 187.002L60.179 191.626L66.0559 190.873V185.387Z" fill="#15A89D"/>
<path d="M71.1695 192.594V196.585C73.0942 196.286 74.9296 195.67 76.5699 194.772C78.2102 193.873 79.6228 192.711 80.7263 191.35L76.5376 189.905L71.1695 192.594Z" fill="#15A89D"/>
<path d="M41.7896 199.883C41.7897 202.953 43.0846 205.922 45.4437 208.263C47.8028 210.604 51.0728 212.164 54.671 212.665C58.2693 213.166 61.962 212.576 65.0914 210.999C68.2207 209.423 70.5832 206.962 71.7582 204.056C72.9331 201.151 72.844 197.988 71.5067 195.133C70.1695 192.277 67.671 189.914 64.4564 188.464C61.2419 187.014 57.52 186.572 53.954 187.216C50.388 187.86 47.2096 189.548 44.985 191.98C42.9126 194.246 41.7891 197.024 41.7896 199.883Z" fill="url(#paint4_linear_13_287)"/>
<path d="M42.3572 199.883C42.3581 202.839 43.6059 205.699 45.8784 207.953C48.1509 210.207 51.3004 211.709 54.7659 212.191C58.2314 212.673 61.7877 212.104 64.8013 210.586C67.8149 209.067 70.09 206.697 71.2212 203.899C72.3524 201.1 72.2664 198.055 70.9783 195.305C69.6903 192.554 67.2839 190.278 64.188 188.882C61.092 187.486 57.5076 187.06 54.0733 187.68C50.6389 188.3 47.5778 189.926 45.4352 192.269C43.4386 194.451 42.3564 197.129 42.3572 199.883Z" fill="#E0E0E0"/>
<path d="M48.8752 193.751V198.59" stroke="#535461" stroke-miterlimit="10"/>
<path d="M59.8658 198.162L53.8616 201.498" stroke="#535461" stroke-miterlimit="10"/>
<path d="M53.8616 190.741L60.8885 193.216" stroke="#535461" stroke-miterlimit="10"/>
<path d="M65.6155 199.023L65.2338 206.551" stroke="#535461" stroke-miterlimit="10"/>
<path d="M60.8885 208.811L52.9661 205.476" stroke="#535461" stroke-miterlimit="10"/>
<path d="M48.8752 206.015V210.22" stroke="#535461" stroke-miterlimit="10"/>
<path d="M45.9343 202.787L42.4796 201.498" stroke="#535461" stroke-miterlimit="10"/>
<path d="M65.2338 192.783L64.9696 189.267" stroke="#535461" stroke-miterlimit="10"/>
<path d="M67.5337 196.873L71.8203 197.902" stroke="#535461" stroke-miterlimit="10"/>
<path d="M68.6837 196.873L65.3611 192.03L59.8658 192.784V198.162L65.7476 200.744L68.6837 196.873Z" fill="#15A89D"/>
<path d="M45.4352 192.269L48.8605 193.751C50.0105 192.462 54.7326 190.955 54.7326 190.955L54.2433 187.661C50.7431 188.253 47.6151 189.889 45.4352 192.269Z" fill="#15A89D"/>
<path d="M54.7522 200.958L48.748 198.59L45.4254 202.572L48.8752 207.197L54.7522 206.443V200.958Z" fill="#15A89D"/>
<path d="M59.8658 208.152V212.143C61.7897 211.846 63.6247 211.231 65.2649 210.334C66.9051 209.437 68.3182 208.276 69.4226 206.917L65.2338 205.472L59.8658 208.152Z" fill="#15A89D"/>
</g>
<defs>
<linearGradient id="paint0_linear_13_287" x1="186.962" y1="118.109" x2="186.962" y2="118.006" gradientUnits="userSpaceOnUse">
<stop stop-color="#808080" stop-opacity="0.25"/>
<stop offset="0.54" stop-color="#808080" stop-opacity="0.12"/>
<stop offset="1" stop-color="#808080" stop-opacity="0.1"/>
</linearGradient>
<linearGradient id="paint1_linear_13_287" x1="48806.1" y1="109008" x2="48806.1" y2="45884.3" gradientUnits="userSpaceOnUse">
<stop stop-color="#808080" stop-opacity="0.25"/>
<stop offset="0.54" stop-color="#808080" stop-opacity="0.12"/>
<stop offset="1" stop-color="#808080" stop-opacity="0.1"/>
</linearGradient>
<linearGradient id="paint2_linear_13_287" x1="19315.6" y1="8399.1" x2="19315.6" y2="6082.63" gradientUnits="userSpaceOnUse">
<stop stop-color="#808080" stop-opacity="0.25"/>
<stop offset="0.54" stop-color="#808080" stop-opacity="0.12"/>
<stop offset="1" stop-color="#808080" stop-opacity="0.1"/>
</linearGradient>
<linearGradient id="paint3_linear_13_287" x1="31342.6" y1="13893.1" x2="31342.6" y2="12263.2" gradientUnits="userSpaceOnUse">
<stop stop-color="#808080" stop-opacity="0.25"/>
<stop offset="0.54" stop-color="#808080" stop-opacity="0.12"/>
<stop offset="1" stop-color="#808080" stop-opacity="0.1"/>
</linearGradient>
<linearGradient id="paint4_linear_13_287" x1="32042.3" y1="14888.4" x2="32042.3" y2="13258.5" gradientUnits="userSpaceOnUse">
<stop stop-color="#808080" stop-opacity="0.25"/>
<stop offset="0.54" stop-color="#808080" stop-opacity="0.12"/>
<stop offset="1" stop-color="#808080" stop-opacity="0.1"/>
</linearGradient>
<clipPath id="clip0_13_287">
<rect width="560" height="329" fill="white"/>
</clipPath>
</defs>
</svg>
