<svg width="1348" height="323" viewBox="0 0 1348 323" fill="none" xmlns="http://www.w3.org/2000/svg">
<path d="M593.14 21.4967C407.514 -28.9876 120.369 21.1628 0 52.5485V323L1348 311.481V21.4967C1020.54 148.208 825.173 84.602 593.14 21.4967Z" fill="#15A89D"/>
<path d="M216.44 180.48C214.008 180.48 211.736 180.032 209.624 179.136C207.512 178.24 205.656 177.008 204.056 175.44C202.456 173.84 201.192 172 200.264 169.92C199.368 167.84 198.92 165.6 198.92 163.2C198.92 160.8 199.368 158.56 200.264 156.48C201.192 154.4 202.456 152.576 204.056 151.008C205.656 149.408 207.512 148.16 209.624 147.264C211.736 146.368 214.008 145.92 216.44 145.92C217.944 145.92 219.4 146.08 220.808 146.4C222.216 146.72 223.512 147.2 224.696 147.84C225.176 148.096 225.528 148.448 225.752 148.896C226.008 149.312 226.136 149.744 226.136 150.192C226.136 150.96 225.88 151.648 225.368 152.256C224.856 152.864 224.2 153.168 223.4 153.168C223.144 153.168 222.872 153.136 222.584 153.072C222.328 153.008 222.072 152.912 221.816 152.784C221.016 152.432 220.168 152.16 219.272 151.968C218.376 151.776 217.432 151.68 216.44 151.68C214.36 151.68 212.456 152.208 210.728 153.264C209.032 154.288 207.672 155.68 206.648 157.44C205.656 159.168 205.16 161.088 205.16 163.2C205.16 165.28 205.656 167.2 206.648 168.96C207.672 170.72 209.032 172.128 210.728 173.184C212.456 174.208 214.36 174.72 216.44 174.72C217.4 174.72 218.456 174.624 219.608 174.432C220.76 174.24 221.704 173.984 222.44 173.664L222.008 175.104V166.896L222.824 167.616H217.496C216.664 167.616 215.96 167.344 215.384 166.8C214.84 166.256 214.568 165.568 214.568 164.736C214.568 163.904 214.84 163.216 215.384 162.672C215.96 162.128 216.664 161.856 217.496 161.856H225.368C226.2 161.856 226.888 162.144 227.432 162.72C227.976 163.264 228.248 163.952 228.248 164.784V174.96C228.248 175.6 228.088 176.128 227.768 176.544C227.48 176.96 227.144 177.296 226.76 177.552C225.288 178.448 223.672 179.168 221.912 179.712C220.184 180.224 218.36 180.48 216.44 180.48ZM252.598 154.32C253.43 154.32 254.118 154.608 254.662 155.184C255.206 155.728 255.478 156.416 255.478 157.248V169.44C255.478 172.832 254.534 175.52 252.646 177.504C250.758 179.488 248.038 180.48 244.486 180.48C240.934 180.48 238.214 179.488 236.326 177.504C234.47 175.52 233.542 172.832 233.542 169.44V157.248C233.542 156.416 233.814 155.728 234.358 155.184C234.902 154.608 235.59 154.32 236.422 154.32C237.254 154.32 237.942 154.608 238.486 155.184C239.03 155.728 239.302 156.416 239.302 157.248V169.44C239.302 171.392 239.734 172.848 240.598 173.808C241.462 174.736 242.758 175.2 244.486 175.2C246.246 175.2 247.558 174.736 248.422 173.808C249.286 172.848 249.718 171.392 249.718 169.44V157.248C249.718 156.416 249.99 155.728 250.534 155.184C251.078 154.608 251.766 154.32 252.598 154.32ZM264.594 180C263.762 180 263.074 179.728 262.53 179.184C261.986 178.608 261.714 177.904 261.714 177.072V157.248C261.714 156.416 261.986 155.728 262.53 155.184C263.074 154.608 263.762 154.32 264.594 154.32C265.426 154.32 266.114 154.608 266.658 155.184C267.202 155.728 267.474 156.416 267.474 157.248V161.76L267.138 158.544C267.49 157.776 267.938 157.104 268.482 156.528C269.058 155.92 269.698 155.424 270.402 155.04C271.106 154.624 271.858 154.32 272.658 154.128C273.458 153.936 274.258 153.84 275.058 153.84C276.018 153.84 276.818 154.112 277.458 154.656C278.13 155.2 278.466 155.84 278.466 156.576C278.466 157.632 278.194 158.4 277.65 158.88C277.106 159.328 276.514 159.552 275.874 159.552C275.266 159.552 274.706 159.44 274.194 159.216C273.714 158.992 273.154 158.88 272.514 158.88C271.938 158.88 271.346 159.024 270.738 159.312C270.162 159.568 269.618 159.984 269.106 160.56C268.626 161.136 268.226 161.856 267.906 162.72C267.618 163.552 267.474 164.544 267.474 165.696V177.072C267.474 177.904 267.202 178.608 266.658 179.184C266.114 179.728 265.426 180 264.594 180ZM301.582 154.32C302.414 154.32 303.102 154.608 303.646 155.184C304.19 155.728 304.462 156.416 304.462 157.248V169.44C304.462 172.832 303.518 175.52 301.63 177.504C299.742 179.488 297.022 180.48 293.47 180.48C289.918 180.48 287.198 179.488 285.31 177.504C283.454 175.52 282.526 172.832 282.526 169.44V157.248C282.526 156.416 282.798 155.728 283.342 155.184C283.886 154.608 284.574 154.32 285.406 154.32C286.238 154.32 286.926 154.608 287.47 155.184C288.014 155.728 288.286 156.416 288.286 157.248V169.44C288.286 171.392 288.718 172.848 289.582 173.808C290.446 174.736 291.742 175.2 293.47 175.2C295.23 175.2 296.542 174.736 297.406 173.808C298.27 172.848 298.702 171.392 298.702 169.44V157.248C298.702 156.416 298.974 155.728 299.518 155.184C300.062 154.608 300.75 154.32 301.582 154.32Z" fill="#E2F5F3"/>
<path d="M561.4 180.48C559.16 180.48 557.144 180.208 555.352 179.664C553.56 179.088 551.848 178.096 550.216 176.688C549.8 176.336 549.48 175.936 549.256 175.488C549.032 175.04 548.92 174.592 548.92 174.144C548.92 173.408 549.176 172.768 549.688 172.224C550.232 171.648 550.904 171.36 551.704 171.36C552.312 171.36 552.856 171.552 553.336 171.936C554.552 172.928 555.752 173.68 556.936 174.192C558.152 174.704 559.64 174.96 561.4 174.96C562.584 174.96 563.672 174.784 564.664 174.432C565.656 174.048 566.456 173.552 567.064 172.944C567.672 172.304 567.976 171.584 567.976 170.784C567.976 169.824 567.688 169.008 567.112 168.336C566.536 167.664 565.656 167.104 564.472 166.656C563.288 166.176 561.784 165.808 559.96 165.552C558.232 165.296 556.712 164.912 555.4 164.4C554.088 163.856 552.984 163.184 552.088 162.384C551.224 161.552 550.568 160.592 550.12 159.504C549.672 158.384 549.448 157.136 549.448 155.76C549.448 153.68 549.976 151.904 551.032 150.432C552.12 148.96 553.576 147.84 555.4 147.072C557.224 146.304 559.24 145.92 561.448 145.92C563.528 145.92 565.448 146.24 567.208 146.88C569 147.488 570.456 148.272 571.576 149.232C572.504 149.968 572.968 150.816 572.968 151.776C572.968 152.48 572.696 153.12 572.152 153.696C571.608 154.272 570.968 154.56 570.232 154.56C569.752 154.56 569.32 154.416 568.936 154.128C568.424 153.68 567.736 153.264 566.872 152.88C566.008 152.464 565.096 152.128 564.136 151.872C563.176 151.584 562.28 151.44 561.448 151.44C560.072 151.44 558.904 151.616 557.944 151.968C557.016 152.32 556.312 152.8 555.832 153.408C555.352 154.016 555.112 154.72 555.112 155.52C555.112 156.48 555.384 157.28 555.928 157.92C556.504 158.528 557.32 159.024 558.376 159.408C559.432 159.76 560.696 160.08 562.168 160.368C564.088 160.72 565.768 161.136 567.208 161.616C568.68 162.096 569.896 162.72 570.856 163.488C571.816 164.224 572.536 165.168 573.016 166.32C573.496 167.44 573.736 168.816 573.736 170.448C573.736 172.528 573.16 174.32 572.008 175.824C570.856 177.328 569.336 178.48 567.448 179.28C565.592 180.08 563.576 180.48 561.4 180.48ZM584.185 177.072C584.185 177.904 583.913 178.608 583.369 179.184C582.825 179.728 582.137 180 581.305 180C580.473 180 579.785 179.728 579.241 179.184C578.697 178.608 578.425 177.904 578.425 177.072V157.248C578.425 156.416 578.697 155.728 579.241 155.184C579.785 154.608 580.473 154.32 581.305 154.32C582.137 154.32 582.825 154.608 583.369 155.184C583.913 155.728 584.185 156.416 584.185 157.248V177.072ZM581.257 151.2C580.169 151.2 579.401 151.024 578.953 150.672C578.505 150.32 578.281 149.696 578.281 148.8V147.888C578.281 146.96 578.521 146.336 579.001 146.016C579.513 145.664 580.281 145.488 581.305 145.488C582.425 145.488 583.209 145.664 583.657 146.016C584.105 146.368 584.329 146.992 584.329 147.888V148.8C584.329 149.728 584.089 150.368 583.609 150.72C583.129 151.04 582.345 151.2 581.257 151.2ZM588.616 176.016C588.296 175.568 588.152 174.992 588.184 174.288C588.216 173.584 588.632 172.976 589.432 172.464C589.944 172.144 590.488 172.016 591.064 172.08C591.64 172.112 592.2 172.4 592.744 172.944C593.672 173.872 594.648 174.592 595.672 175.104C596.696 175.616 597.976 175.872 599.512 175.872C599.992 175.84 600.52 175.776 601.096 175.68C601.672 175.552 602.168 175.296 602.584 174.912C603.032 174.496 603.256 173.872 603.256 173.04C603.256 172.336 603.016 171.776 602.536 171.36C602.056 170.944 601.416 170.592 600.616 170.304C599.848 170.016 598.984 169.744 598.024 169.488C597.032 169.2 596.008 168.88 594.952 168.528C593.928 168.176 592.984 167.728 592.12 167.184C591.256 166.608 590.552 165.856 590.008 164.928C589.464 164 589.192 162.832 589.192 161.424C589.192 159.824 589.64 158.464 590.536 157.344C591.432 156.224 592.584 155.36 593.992 154.752C595.432 154.144 596.936 153.84 598.504 153.84C599.496 153.84 600.536 153.968 601.624 154.224C602.712 154.448 603.752 154.832 604.744 155.376C605.736 155.888 606.568 156.576 607.24 157.44C607.592 157.92 607.8 158.496 607.864 159.168C607.928 159.84 607.624 160.448 606.952 160.992C606.472 161.376 605.912 161.552 605.272 161.52C604.632 161.456 604.104 161.232 603.688 160.848C603.144 160.144 602.408 159.584 601.48 159.168C600.584 158.752 599.544 158.544 598.36 158.544C597.88 158.544 597.352 158.608 596.776 158.736C596.232 158.832 595.752 159.072 595.336 159.456C594.92 159.808 594.712 160.384 594.712 161.184C594.712 161.92 594.952 162.512 595.432 162.96C595.912 163.376 596.552 163.728 597.352 164.016C598.184 164.272 599.064 164.528 599.992 164.784C600.952 165.04 601.928 165.344 602.92 165.696C603.912 166.048 604.824 166.512 605.656 167.088C606.488 167.664 607.16 168.416 607.672 169.344C608.184 170.24 608.44 171.392 608.44 172.8C608.44 174.432 607.96 175.824 607 176.976C606.04 178.128 604.84 179.008 603.4 179.616C601.96 180.192 600.488 180.48 598.984 180.48C597.096 180.48 595.208 180.16 593.32 179.52C591.432 178.848 589.864 177.68 588.616 176.016ZM642.829 154.32C643.565 154.32 644.205 154.608 644.749 155.184C645.293 155.728 645.565 156.432 645.565 157.296C645.565 157.52 645.549 157.728 645.517 157.92C645.485 158.08 645.437 158.24 645.373 158.4L638.029 178.176C637.805 178.816 637.405 179.312 636.829 179.664C636.253 179.984 635.645 180.096 635.005 180C633.917 179.936 633.101 179.328 632.557 178.176L627.805 164.496L629.053 164.544L624.589 178.176C624.045 179.328 623.229 179.936 622.141 180C621.533 180.096 620.925 179.984 620.317 179.664C619.741 179.312 619.341 178.816 619.117 178.176L611.773 158.4C611.645 158.048 611.581 157.68 611.581 157.296C611.581 156.528 611.837 155.84 612.349 155.232C612.861 154.624 613.565 154.32 614.461 154.32C615.069 154.32 615.613 154.464 616.093 154.752C616.573 155.04 616.909 155.504 617.101 156.144L622.909 171.888L621.709 171.792L626.077 159.936C626.589 158.752 627.469 158.16 628.717 158.16C629.421 158.16 629.949 158.32 630.301 158.64C630.685 158.928 630.989 159.36 631.213 159.936L635.581 171.792L634.141 171.984L640.045 156.144C640.429 154.928 641.357 154.32 642.829 154.32ZM671.316 153.84C672.148 153.84 672.836 154.112 673.38 154.656C673.924 155.2 674.196 155.904 674.196 156.768V177.072C674.196 177.904 673.924 178.608 673.38 179.184C672.836 179.728 672.148 180 671.316 180C670.484 180 669.796 179.728 669.252 179.184C668.708 178.608 668.436 177.904 668.436 177.072V174.72L669.492 175.152C669.492 175.568 669.268 176.08 668.82 176.688C668.372 177.264 667.764 177.84 666.996 178.416C666.228 178.992 665.316 179.488 664.26 179.904C663.236 180.288 662.116 180.48 660.9 180.48C658.692 180.48 656.692 179.92 654.9 178.8C653.108 177.648 651.684 176.08 650.628 174.096C649.604 172.08 649.092 169.776 649.092 167.184C649.092 164.56 649.604 162.256 650.628 160.272C651.684 158.256 653.092 156.688 654.852 155.568C656.612 154.416 658.564 153.84 660.708 153.84C662.084 153.84 663.348 154.048 664.5 154.464C665.652 154.88 666.644 155.408 667.476 156.048C668.34 156.688 668.996 157.344 669.444 158.016C669.924 158.656 670.164 159.2 670.164 159.648L668.436 160.272V156.768C668.436 155.936 668.708 155.248 669.252 154.704C669.796 154.128 670.484 153.84 671.316 153.84ZM661.62 175.2C663.028 175.2 664.26 174.848 665.316 174.144C666.372 173.44 667.188 172.48 667.764 171.264C668.372 170.048 668.676 168.688 668.676 167.184C668.676 165.648 668.372 164.272 667.764 163.056C667.188 161.84 666.372 160.88 665.316 160.176C664.26 159.472 663.028 159.12 661.62 159.12C660.244 159.12 659.028 159.472 657.972 160.176C656.916 160.88 656.084 161.84 655.476 163.056C654.9 164.272 654.612 165.648 654.612 167.184C654.612 168.688 654.9 170.048 655.476 171.264C656.084 172.48 656.916 173.44 657.972 174.144C659.028 174.848 660.244 175.2 661.62 175.2Z" fill="#E2F5F3"/>
<path d="M900.936 153.936L890.568 178.32C890.344 178.928 889.992 179.408 889.512 179.76C889.064 180.08 888.568 180.24 888.024 180.24C887.16 180.24 886.52 180 886.104 179.52C885.688 179.04 885.48 178.448 885.48 177.744C885.48 177.456 885.528 177.152 885.624 176.832L897.576 148.128C897.832 147.488 898.216 146.992 898.728 146.64C899.272 146.288 899.848 146.144 900.456 146.208C901.032 146.208 901.56 146.384 902.04 146.736C902.552 147.056 902.92 147.52 903.144 148.128L914.952 176.256C915.112 176.672 915.192 177.056 915.192 177.408C915.192 178.272 914.904 178.96 914.328 179.472C913.784 179.984 913.176 180.24 912.504 180.24C911.928 180.24 911.4 180.064 910.92 179.712C910.472 179.36 910.12 178.88 909.864 178.272L899.544 154.224L900.936 153.936ZM892.056 172.464L894.696 166.944H907.656L908.568 172.464H892.056ZM925.016 177.072C925.016 177.904 924.728 178.608 924.152 179.184C923.608 179.728 922.92 180 922.088 180C921.288 180 920.616 179.728 920.072 179.184C919.528 178.608 919.256 177.904 919.256 177.072V147.408C919.256 146.576 919.528 145.888 920.072 145.344C920.648 144.768 921.352 144.48 922.184 144.48C923.016 144.48 923.688 144.768 924.2 145.344C924.744 145.888 925.016 146.576 925.016 147.408V177.072ZM950.535 154.32C951.367 154.32 952.055 154.608 952.599 155.184C953.143 155.728 953.415 156.416 953.415 157.248V169.44C953.415 172.832 952.471 175.52 950.583 177.504C948.695 179.488 945.975 180.48 942.423 180.48C938.871 180.48 936.151 179.488 934.263 177.504C932.407 175.52 931.479 172.832 931.479 169.44V157.248C931.479 156.416 931.751 155.728 932.295 155.184C932.839 154.608 933.527 154.32 934.359 154.32C935.191 154.32 935.879 154.608 936.423 155.184C936.967 155.728 937.239 156.416 937.239 157.248V169.44C937.239 171.392 937.671 172.848 938.535 173.808C939.399 174.736 940.695 175.2 942.423 175.2C944.183 175.2 945.495 174.736 946.359 173.808C947.223 172.848 947.655 171.392 947.655 169.44V157.248C947.655 156.416 947.927 155.728 948.471 155.184C949.015 154.608 949.703 154.32 950.535 154.32ZM973.139 153.84C975.699 153.84 977.587 154.464 978.803 155.712C980.019 156.928 980.819 158.512 981.203 160.464L980.387 160.032L980.771 159.264C981.155 158.528 981.747 157.744 982.547 156.912C983.347 156.048 984.307 155.328 985.427 154.752C986.579 154.144 987.859 153.84 989.267 153.84C991.571 153.84 993.315 154.336 994.499 155.328C995.715 156.32 996.547 157.648 996.995 159.312C997.443 160.944 997.667 162.768 997.667 164.784V177.072C997.667 177.904 997.395 178.608 996.851 179.184C996.307 179.728 995.619 180 994.787 180C993.955 180 993.267 179.728 992.723 179.184C992.179 178.608 991.907 177.904 991.907 177.072V164.784C991.907 163.728 991.779 162.784 991.523 161.952C991.267 161.088 990.803 160.4 990.131 159.888C989.459 159.376 988.499 159.12 987.251 159.12C986.035 159.12 984.995 159.376 984.131 159.888C983.267 160.4 982.611 161.088 982.163 161.952C981.747 162.784 981.539 163.728 981.539 164.784V177.072C981.539 177.904 981.267 178.608 980.723 179.184C980.179 179.728 979.491 180 978.659 180C977.827 180 977.139 179.728 976.595 179.184C976.051 178.608 975.779 177.904 975.779 177.072V164.784C975.779 163.728 975.651 162.784 975.395 161.952C975.139 161.088 974.675 160.4 974.003 159.888C973.331 159.376 972.371 159.12 971.123 159.12C969.907 159.12 968.867 159.376 968.003 159.888C967.139 160.4 966.483 161.088 966.035 161.952C965.619 162.784 965.411 163.728 965.411 164.784V177.072C965.411 177.904 965.139 178.608 964.595 179.184C964.051 179.728 963.363 180 962.531 180C961.699 180 961.011 179.728 960.467 179.184C959.923 178.608 959.651 177.904 959.651 177.072V157.248C959.651 156.416 959.923 155.728 960.467 155.184C961.011 154.608 961.699 154.32 962.531 154.32C963.363 154.32 964.051 154.608 964.595 155.184C965.139 155.728 965.411 156.416 965.411 157.248V159.312L964.691 159.168C964.979 158.624 965.379 158.048 965.891 157.44C966.403 156.8 967.027 156.208 967.763 155.664C968.499 155.12 969.315 154.688 970.211 154.368C971.107 154.016 972.083 153.84 973.139 153.84ZM1017.63 153.84C1020 153.84 1021.79 154.336 1023.01 155.328C1024.25 156.32 1025.1 157.648 1025.55 159.312C1026.03 160.944 1026.27 162.768 1026.27 164.784V177.072C1026.27 177.904 1026 178.608 1025.45 179.184C1024.91 179.728 1024.22 180 1023.39 180C1022.56 180 1021.87 179.728 1021.33 179.184C1020.78 178.608 1020.51 177.904 1020.51 177.072V164.784C1020.51 163.728 1020.37 162.784 1020.08 161.952C1019.82 161.088 1019.34 160.4 1018.64 159.888C1017.93 159.376 1016.93 159.12 1015.61 159.12C1014.33 159.12 1013.25 159.376 1012.35 159.888C1011.49 160.4 1010.81 161.088 1010.33 161.952C1009.89 162.784 1009.66 163.728 1009.66 164.784V177.072C1009.66 177.904 1009.39 178.608 1008.85 179.184C1008.3 179.728 1007.61 180 1006.78 180C1005.95 180 1005.26 179.728 1004.72 179.184C1004.17 178.608 1003.9 177.904 1003.9 177.072V157.248C1003.9 156.416 1004.17 155.728 1004.72 155.184C1005.26 154.608 1005.95 154.32 1006.78 154.32C1007.61 154.32 1008.3 154.608 1008.85 155.184C1009.39 155.728 1009.66 156.416 1009.66 157.248V159.312L1008.94 159.168C1009.23 158.624 1009.65 158.048 1010.19 157.44C1010.73 156.8 1011.37 156.208 1012.11 155.664C1012.85 155.12 1013.68 154.688 1014.61 154.368C1015.53 154.016 1016.54 153.84 1017.63 153.84ZM1037.92 177.072C1037.92 177.904 1037.65 178.608 1037.1 179.184C1036.56 179.728 1035.87 180 1035.04 180C1034.21 180 1033.52 179.728 1032.98 179.184C1032.43 178.608 1032.16 177.904 1032.16 177.072V157.248C1032.16 156.416 1032.43 155.728 1032.98 155.184C1033.52 154.608 1034.21 154.32 1035.04 154.32C1035.87 154.32 1036.56 154.608 1037.1 155.184C1037.65 155.728 1037.92 156.416 1037.92 157.248V177.072ZM1034.99 151.2C1033.9 151.2 1033.14 151.024 1032.69 150.672C1032.24 150.32 1032.02 149.696 1032.02 148.8V147.888C1032.02 146.96 1032.26 146.336 1032.74 146.016C1033.25 145.664 1034.02 145.488 1035.04 145.488C1036.16 145.488 1036.94 145.664 1037.39 146.016C1037.84 146.368 1038.06 146.992 1038.06 147.888V148.8C1038.06 149.728 1037.82 150.368 1037.34 150.72C1036.86 151.04 1036.08 151.2 1034.99 151.2Z" fill="#E2F5F3"/>
<path d="M230.94 221.84C232.22 220.773 233.24 219.887 234 219.18C234.76 218.46 235.393 217.713 235.9 216.94C236.407 216.167 236.66 215.407 236.66 214.66C236.66 213.98 236.5 213.447 236.18 213.06C235.86 212.673 235.367 212.48 234.7 212.48C234.033 212.48 233.52 212.707 233.16 213.16C232.8 213.6 232.613 214.207 232.6 214.98H229.88C229.933 213.38 230.407 212.167 231.3 211.34C232.207 210.513 233.353 210.1 234.74 210.1C236.26 210.1 237.427 210.507 238.24 211.32C239.053 212.12 239.46 213.18 239.46 214.5C239.46 215.54 239.18 216.533 238.62 217.48C238.06 218.427 237.42 219.253 236.7 219.96C235.98 220.653 235.04 221.493 233.88 222.48H239.78V224.8H229.9V222.72L230.94 221.84ZM241.544 217.52C241.544 215.213 241.958 213.407 242.784 212.1C243.624 210.793 245.011 210.14 246.944 210.14C248.878 210.14 250.258 210.793 251.084 212.1C251.924 213.407 252.344 215.213 252.344 217.52C252.344 219.84 251.924 221.66 251.084 222.98C250.258 224.3 248.878 224.96 246.944 224.96C245.011 224.96 243.624 224.3 242.784 222.98C241.958 221.66 241.544 219.84 241.544 217.52ZM249.584 217.52C249.584 216.533 249.518 215.707 249.384 215.04C249.264 214.36 249.011 213.807 248.624 213.38C248.251 212.953 247.691 212.74 246.944 212.74C246.198 212.74 245.631 212.953 245.244 213.38C244.871 213.807 244.618 214.36 244.484 215.04C244.364 215.707 244.304 216.533 244.304 217.52C244.304 218.533 244.364 219.387 244.484 220.08C244.604 220.76 244.858 221.313 245.244 221.74C245.631 222.153 246.198 222.36 246.944 222.36C247.691 222.36 248.258 222.153 248.644 221.74C249.031 221.313 249.284 220.76 249.404 220.08C249.524 219.387 249.584 218.533 249.584 217.52ZM265.254 219.1H261.474V222.98H258.834V219.1H255.054V216.66H258.834V212.78H261.474V216.66H265.254V219.1Z" fill="white"/>
<path d="M580.1 214.26C580.167 212.927 580.633 211.9 581.5 211.18C582.38 210.447 583.533 210.08 584.96 210.08C585.933 210.08 586.767 210.253 587.46 210.6C588.153 210.933 588.673 211.393 589.02 211.98C589.38 212.553 589.56 213.207 589.56 213.94C589.56 214.78 589.34 215.493 588.9 216.08C588.473 216.653 587.96 217.04 587.36 217.24V217.32C588.133 217.56 588.733 217.987 589.16 218.6C589.6 219.213 589.82 220 589.82 220.96C589.82 221.76 589.633 222.473 589.26 223.1C588.9 223.727 588.36 224.22 587.64 224.58C586.933 224.927 586.08 225.1 585.08 225.1C583.573 225.1 582.347 224.72 581.4 223.96C580.453 223.2 579.953 222.08 579.9 220.6H582.62C582.647 221.253 582.867 221.78 583.28 222.18C583.707 222.567 584.287 222.76 585.02 222.76C585.7 222.76 586.22 222.573 586.58 222.2C586.953 221.813 587.14 221.32 587.14 220.72C587.14 219.92 586.887 219.347 586.38 219C585.873 218.653 585.087 218.48 584.02 218.48H583.44V216.18H584.02C585.913 216.18 586.86 215.547 586.86 214.28C586.86 213.707 586.687 213.26 586.34 212.94C586.007 212.62 585.52 212.46 584.88 212.46C584.253 212.46 583.767 212.633 583.42 212.98C583.087 213.313 582.893 213.74 582.84 214.26H580.1ZM592.033 217.52C592.033 215.213 592.446 213.407 593.273 212.1C594.113 210.793 595.499 210.14 597.433 210.14C599.366 210.14 600.746 210.793 601.573 212.1C602.413 213.407 602.833 215.213 602.833 217.52C602.833 219.84 602.413 221.66 601.573 222.98C600.746 224.3 599.366 224.96 597.433 224.96C595.499 224.96 594.113 224.3 593.273 222.98C592.446 221.66 592.033 219.84 592.033 217.52ZM600.073 217.52C600.073 216.533 600.006 215.707 599.873 215.04C599.753 214.36 599.499 213.807 599.113 213.38C598.739 212.953 598.179 212.74 597.433 212.74C596.686 212.74 596.119 212.953 595.733 213.38C595.359 213.807 595.106 214.36 594.973 215.04C594.853 215.707 594.793 216.533 594.793 217.52C594.793 218.533 594.853 219.387 594.973 220.08C595.093 220.76 595.346 221.313 595.733 221.74C596.119 222.153 596.686 222.36 597.433 222.36C598.179 222.36 598.746 222.153 599.133 221.74C599.519 221.313 599.773 220.76 599.893 220.08C600.013 219.387 600.073 218.533 600.073 217.52ZM604.962 217.52C604.962 215.213 605.376 213.407 606.202 212.1C607.042 210.793 608.429 210.14 610.362 210.14C612.296 210.14 613.676 210.793 614.502 212.1C615.342 213.407 615.762 215.213 615.762 217.52C615.762 219.84 615.342 221.66 614.502 222.98C613.676 224.3 612.296 224.96 610.362 224.96C608.429 224.96 607.042 224.3 606.202 222.98C605.376 221.66 604.962 219.84 604.962 217.52ZM613.002 217.52C613.002 216.533 612.936 215.707 612.802 215.04C612.682 214.36 612.429 213.807 612.042 213.38C611.669 212.953 611.109 212.74 610.362 212.74C609.616 212.74 609.049 212.953 608.662 213.38C608.289 213.807 608.036 214.36 607.902 215.04C607.782 215.707 607.722 216.533 607.722 217.52C607.722 218.533 607.782 219.387 607.902 220.08C608.022 220.76 608.276 221.313 608.662 221.74C609.049 222.153 609.616 222.36 610.362 222.36C611.109 222.36 611.676 222.153 612.062 221.74C612.449 221.313 612.702 220.76 612.822 220.08C612.942 219.387 613.002 218.533 613.002 217.52ZM628.672 219.1H624.892V222.98H622.252V219.1H618.472V216.66H622.252V212.78H624.892V216.66H628.672V219.1Z" fill="white"/>
<path d="M917.72 213V210.42H922.54V225H919.66V213H917.72ZM925.306 217.52C925.306 215.213 925.719 213.407 926.546 212.1C927.386 210.793 928.773 210.14 930.706 210.14C932.639 210.14 934.019 210.793 934.846 212.1C935.686 213.407 936.106 215.213 936.106 217.52C936.106 219.84 935.686 221.66 934.846 222.98C934.019 224.3 932.639 224.96 930.706 224.96C928.773 224.96 927.386 224.3 926.546 222.98C925.719 221.66 925.306 219.84 925.306 217.52ZM933.346 217.52C933.346 216.533 933.279 215.707 933.146 215.04C933.026 214.36 932.773 213.807 932.386 213.38C932.013 212.953 931.453 212.74 930.706 212.74C929.959 212.74 929.393 212.953 929.006 213.38C928.633 213.807 928.379 214.36 928.246 215.04C928.126 215.707 928.066 216.533 928.066 217.52C928.066 218.533 928.126 219.387 928.246 220.08C928.366 220.76 928.619 221.313 929.006 221.74C929.393 222.153 929.959 222.36 930.706 222.36C931.453 222.36 932.019 222.153 932.406 221.74C932.793 221.313 933.046 220.76 933.166 220.08C933.286 219.387 933.346 218.533 933.346 217.52ZM939.796 225.14C939.289 225.14 938.869 224.987 938.536 224.68C938.216 224.36 938.056 223.967 938.056 223.5C938.056 223.033 938.216 222.647 938.536 222.34C938.869 222.02 939.289 221.86 939.796 221.86C940.289 221.86 940.696 222.02 941.016 222.34C941.336 222.647 941.496 223.033 941.496 223.5C941.496 223.967 941.336 224.36 941.016 224.68C940.696 224.987 940.289 225.14 939.796 225.14ZM943.431 217.52C943.431 215.213 943.844 213.407 944.671 212.1C945.511 210.793 946.898 210.14 948.831 210.14C950.764 210.14 952.144 210.793 952.971 212.1C953.811 213.407 954.231 215.213 954.231 217.52C954.231 219.84 953.811 221.66 952.971 222.98C952.144 224.3 950.764 224.96 948.831 224.96C946.898 224.96 945.511 224.3 944.671 222.98C943.844 221.66 943.431 219.84 943.431 217.52ZM951.471 217.52C951.471 216.533 951.404 215.707 951.271 215.04C951.151 214.36 950.898 213.807 950.511 213.38C950.138 212.953 949.578 212.74 948.831 212.74C948.084 212.74 947.518 212.953 947.131 213.38C946.758 213.807 946.504 214.36 946.371 215.04C946.251 215.707 946.191 216.533 946.191 217.52C946.191 218.533 946.251 219.387 946.371 220.08C946.491 220.76 946.744 221.313 947.131 221.74C947.518 222.153 948.084 222.36 948.831 222.36C949.578 222.36 950.144 222.153 950.531 221.74C950.918 221.313 951.171 220.76 951.291 220.08C951.411 219.387 951.471 218.533 951.471 217.52ZM956.361 217.52C956.361 215.213 956.774 213.407 957.601 212.1C958.441 210.793 959.827 210.14 961.761 210.14C963.694 210.14 965.074 210.793 965.901 212.1C966.741 213.407 967.161 215.213 967.161 217.52C967.161 219.84 966.741 221.66 965.901 222.98C965.074 224.3 963.694 224.96 961.761 224.96C959.827 224.96 958.441 224.3 957.601 222.98C956.774 221.66 956.361 219.84 956.361 217.52ZM964.401 217.52C964.401 216.533 964.334 215.707 964.201 215.04C964.081 214.36 963.827 213.807 963.441 213.38C963.067 212.953 962.507 212.74 961.761 212.74C961.014 212.74 960.447 212.953 960.061 213.38C959.687 213.807 959.434 214.36 959.301 215.04C959.181 215.707 959.121 216.533 959.121 217.52C959.121 218.533 959.181 219.387 959.301 220.08C959.421 220.76 959.674 221.313 960.061 221.74C960.447 222.153 961.014 222.36 961.761 222.36C962.507 222.36 963.074 222.153 963.461 221.74C963.847 221.313 964.101 220.76 964.221 220.08C964.341 219.387 964.401 218.533 964.401 217.52ZM969.29 217.52C969.29 215.213 969.704 213.407 970.53 212.1C971.37 210.793 972.757 210.14 974.69 210.14C976.624 210.14 978.004 210.793 978.83 212.1C979.67 213.407 980.09 215.213 980.09 217.52C980.09 219.84 979.67 221.66 978.83 222.98C978.004 224.3 976.624 224.96 974.69 224.96C972.757 224.96 971.37 224.3 970.53 222.98C969.704 221.66 969.29 219.84 969.29 217.52ZM977.33 217.52C977.33 216.533 977.264 215.707 977.13 215.04C977.01 214.36 976.757 213.807 976.37 213.38C975.997 212.953 975.437 212.74 974.69 212.74C973.944 212.74 973.377 212.953 972.99 213.38C972.617 213.807 972.364 214.36 972.23 215.04C972.11 215.707 972.05 216.533 972.05 217.52C972.05 218.533 972.11 219.387 972.23 220.08C972.35 220.76 972.604 221.313 972.99 221.74C973.377 222.153 973.944 222.36 974.69 222.36C975.437 222.36 976.004 222.153 976.39 221.74C976.777 221.313 977.03 220.76 977.15 220.08C977.27 219.387 977.33 218.533 977.33 217.52ZM993 219.1H989.22V222.98H986.58V219.1H982.8V216.66H986.58V212.78H989.22V216.66H993V219.1Z" fill="white"/>
</svg>
