<svg width="41" height="41" viewBox="0 0 41 41" fill="none" xmlns="http://www.w3.org/2000/svg">
<circle cx="20.5" cy="20.5" r="20.5" fill="#C6F1ED"/>
<path d="M33.4998 26.15V29.9C33.5012 30.2481 33.4299 30.5927 33.2904 30.9117C33.151 31.2307 32.9464 31.517 32.6899 31.7523C32.4334 31.9877 32.1305 32.1669 31.8007 32.2784C31.4709 32.3899 31.1215 32.4313 30.7748 32.4C26.9283 31.9821 23.2335 30.6677 19.9873 28.5625C16.9671 26.6433 14.4065 24.0827 12.4873 21.0625C10.3748 17.8015 9.0601 14.0887 8.64979 10.225C8.61856 9.87933 8.65964 9.53095 8.77042 9.20203C8.8812 8.87311 9.05926 8.57086 9.29325 8.31453C9.52725 8.05819 9.81205 7.85339 10.1295 7.71315C10.447 7.57292 10.7902 7.50033 11.1373 7.5H14.8873C15.4939 7.49403 16.082 7.70885 16.542 8.10442C17.002 8.49998 17.3024 9.04931 17.3873 9.65C17.5456 10.8501 17.8391 12.0284 18.2623 13.1625C18.4305 13.6099 18.4669 14.0961 18.3672 14.5636C18.2675 15.0311 18.0359 15.4601 17.6998 15.8L16.1123 17.3875C17.8917 20.5169 20.4829 23.1081 23.6123 24.8875L25.1998 23.3C25.5397 22.9639 25.9687 22.7323 26.4362 22.6326C26.9036 22.5329 27.3899 22.5693 27.8373 22.7375C28.9714 23.1607 30.1497 23.4542 31.3498 23.6125C31.957 23.6982 32.5115 24.004 32.908 24.4719C33.3044 24.9397 33.515 25.537 33.4998 26.15Z" stroke="#15A89D" stroke-width="2" stroke-linecap="round" stroke-linejoin="round"/>
</svg>
