<svg width="26" height="26" viewBox="0 0 26 26" fill="none" xmlns="http://www.w3.org/2000/svg">
<path d="M23.8333 18.3299V21.5799C23.8346 21.8817 23.7728 22.1803 23.6519 22.4567C23.531 22.7332 23.3537 22.9813 23.1314 23.1853C22.9091 23.3893 22.6466 23.5446 22.3608 23.6412C22.075 23.7379 21.7722 23.7738 21.4717 23.7466C18.1381 23.3844 14.9359 22.2453 12.1225 20.4208C9.50498 18.7575 7.28578 16.5383 5.6225 13.9208C3.79164 11.0946 2.65226 7.87685 2.29667 4.52828C2.26959 4.2287 2.3052 3.92677 2.40121 3.6417C2.49722 3.35664 2.65153 3.09469 2.85433 2.87253C3.05712 2.65037 3.30395 2.47288 3.57911 2.35134C3.85426 2.2298 4.1517 2.16689 4.4525 2.16661H7.7025C8.22825 2.16143 8.73794 2.34761 9.13657 2.69044C9.53521 3.03326 9.79558 3.50934 9.86916 4.02994C10.0063 5.07001 10.2607 6.09123 10.6275 7.07411C10.7733 7.46186 10.8048 7.88327 10.7184 8.2884C10.632 8.69353 10.4313 9.0654 10.14 9.35994L8.76417 10.7358C10.3064 13.448 12.552 15.6936 15.2642 17.2358L16.64 15.8599C16.9345 15.5687 17.3064 15.3679 17.7115 15.2815C18.1167 15.1951 18.5381 15.2267 18.9258 15.3724C19.9087 15.7392 20.9299 15.9936 21.97 16.1308C22.4962 16.205 22.9768 16.4701 23.3204 16.8756C23.664 17.281 23.8465 17.7986 23.8333 18.3299Z" stroke="#15A89D" stroke-width="2" stroke-linecap="round" stroke-linejoin="round"/>
</svg>
